<?xml version="1.0" standalone="no"?>
<!DOCTYPE svg PUBLIC "-//W3C//DTD SVG 1.1//EN" "http://www.w3.org/Graphics/SVG/1.1/DTD/svg11.dtd" >
<svg xmlns="http://www.w3.org/2000/svg">
<metadata>Generated by IcoMoon</metadata>
<defs>
<font id="phxicons" horiz-adv-x="1024">
<font-face units-per-em="1024" ascent="960" descent="-64" />
<missing-glyph horiz-adv-x="1024" />
<glyph unicode="&#x20;" horiz-adv-x="512" d="" />
<glyph unicode="&#xe900;" glyph-name="steps" horiz-adv-x="640" d="M136.515 896c-75.11 0-136-100.29-136-224 0-68.83 17.020-141.84 34-254.54 13.3-88.29 45.67-161.46 102-161.46s94.080 48.79 94.080 137.97c0 30.37-24.97 78.75-26.080 120.030-2.020 74.46 49.93 104.17 49.93 173 0 123.71-42.83 209-117.93 209zM503.485 640c-75.1 0-117.93-85.29-117.93-209 0-68.83 51.95-98.54 49.93-173-1.109-41.28-26.080-89.66-26.080-120.030 0-89.18 37.75-137.97 94.080-137.97s88.7 73.17 102 161.46c16.98 112.7 34 185.71 34 254.54 0 123.71-60.89 224-136 224z" />
<glyph unicode="&#xe901;" glyph-name="user-tie, user" d="M332.8 716.8c0 98.97 80.23 179.2 179.2 179.2s179.2-80.23 179.2-179.2c0-98.97-80.23-179.2-179.2-179.2s-179.2 80.23-179.2 179.2zM751.006 477.867h-33.062l-185.83-377.294 69.487 347.428-89.6 89.6-89.6-89.6 69.487-347.428-185.829 377.294h-33.062c-119.396 0-119.396-80.254-119.396-179.2v-298.667h716.8v298.667c0 98.946 0 179.2-119.394 179.2z" />
<glyph unicode="&#xe902;" glyph-name="event-path" d="M420.084 163.586h-326.036v565.359h326.036v-97.116h-204.637v-124.864h190.763v-97.116h-190.763v-145.675h204.637v-100.586zM929.95 555.522c0-62.431-17.342-107.523-55.495-138.739s-93.649-48.557-163.015-48.557h-52.027v-201.171h-121.397v565.359h180.36c69.369 0 121.397-13.874 156.081-45.091 38.153-31.217 55.495-72.838 55.495-131.801zM659.409 465.34h38.153c38.153 0 65.901 6.935 83.243 20.809s27.748 34.683 27.748 62.431c0 27.748-6.935 48.557-24.279 62.431-13.874 13.874-38.153 20.809-72.838 20.809h-55.495v-166.482z" />
<glyph unicode="&#xe903;" glyph-name="spinner" d="M385.748 763.751c0 61.478 49.84 111.318 111.318 111.318s111.318-49.84 111.318-111.318c0-61.478-49.84-111.318-111.318-111.318s-111.318 49.84-111.318 111.318zM739.7 429.797c0 0 0 0 0 0 0 50.435 40.885 91.32 91.32 91.32s91.32-40.885 91.32-91.32c0 0 0 0 0 0 0-50.435-40.885-91.32-91.32-91.32s-91.32 40.885-91.32 91.32zM650.497 193.655c0 45.68 37.030 82.711 82.711 82.711s82.711-37.030 82.711-82.711c0-45.68-37.030-82.711-82.711-82.711s-82.711 37.030-82.711 82.711zM422.154 95.843c0 41.373 33.539 74.912 74.912 74.912s74.912-33.539 74.912-74.912c0-41.373-33.539-74.912-74.912-74.912s-74.912 33.539-74.912 74.912zM193.076 193.655c0 37.472 30.378 67.85 67.85 67.85s67.85-30.378 67.85-67.85c0-37.472-30.378-67.85-67.85-67.85s-67.85 30.378-67.85 67.85zM101.66 429.797c0 33.94 27.513 61.452 61.452 61.452s61.452-27.513 61.452-61.452c0-33.94-27.513-61.452-61.452-61.452s-61.452 27.513-61.452 61.452zM205.266 665.937c0 0 0 0 0 0 0 30.74 24.92 55.659 55.659 55.659s55.659-24.92 55.659-55.659c0 0 0 0 0 0 0-30.74-24.92-55.659-55.659-55.659s-55.659 24.92-55.659 55.659zM834.032 665.937c0-55.68-45.142-100.824-100.826-100.824-55.68 0-100.826 45.144-100.826 100.824 0 55.686 45.146 100.824 100.826 100.824 55.686 0 100.826-45.138 100.826-100.824z" />
<glyph unicode="&#xe904;" glyph-name="game-event" d="M302.347 480.253h209.651v-274.159c-32.253-9.676-64.508-19.353-96.761-22.578s-61.282-6.451-90.311-6.451c-80.635 0-138.692 22.578-180.622 70.959-41.93 45.155-61.282 112.889-61.282 199.975 0 83.861 25.804 151.594 74.184 199.975s116.114 70.959 203.2 70.959c54.832 0 106.438-9.676 154.819-32.253l-38.704-90.311c-38.704 19.353-77.41 29.029-119.339 29.029-48.381 0-87.086-16.127-116.114-48.381s-45.155-77.41-45.155-132.241c0-58.057 12.902-99.988 35.479-132.241 22.578-29.029 58.057-45.155 103.212-45.155 22.578 0 48.381 3.225 70.959 6.451v112.889h-99.988v93.537zM940.977 183.52h-303.187v525.739h303.187v-90.311h-190.298v-116.114h177.396v-90.311h-177.396v-135.467h190.298v-93.537z" />
<glyph unicode="&#xe905;" glyph-name="rank-event" d="M385.62 378.696v-228.296h-141.325v595.2h195.682c92.405 0 157.633-13.589 201.119-43.485s65.228-73.38 65.228-133.173c0-35.331-10.871-65.228-32.614-92.405s-51.637-48.92-92.405-65.228c100.559-133.173 165.785-220.142 198.399-258.193h-157.633l-160.351 228.296h-76.099zM385.62 481.976h46.203c46.203 0 78.817 5.437 100.559 19.025s32.614 35.331 32.614 62.511c0 27.177-10.871 48.92-32.614 59.791s-57.074 19.025-100.559 19.025h-43.485v-160.351z" />
<glyph unicode="&#xe906;" glyph-name="market-new" d="M694 380.6h139.4v-306.6h-139.4v306.6zM542 380.6l-53.4-184.6-130.2 448.8h-217.8v-570.8h139.4l-1 479 134.8-479h145.4l86.8 306.6zM816.6 644.8h-110.6v110.6h-52.6v-110.6h-110.6v-52.6h110.6v-110.6h52.6v110.6h110.6v52.6zM873.4 822h-387c-5.6 0-10-4.4-10-10v-387c0-5.6 4.4-10 10-10h387c5.6 0 10 4.4 10 10v387c0 5.6-4.4 10-10 10zM852.6 455.6c0-5.6-4.4-10-10-10h-325.6c-5.6 0-10 4.4-10 10v325.6c0 5.6 4.4 10 10 10h325.6c5.6 0 10-4.4 10-10v-325.6z" />
<glyph unicode="&#xe907;" glyph-name="market-edit" d="M694 380.6h139.4v-306.6h-139.4v306.6zM542 380.6l-53.4-184.6-130.2 448.8h-217.8v-570.8h139.4l-1 479 134.8-479h145.4l86.8 306.6zM873.4 822h-387c-5.6 0-10-4.4-10-10v-387c0-5.6 4.4-10 10-10h387c5.6 0 10 4.4 10 10v387c0 5.6-4.4 10-10 10zM852.6 455.6c0-5.6-4.4-10-10-10h-325.6c-5.6 0-10 4.4-10 10v325.6c0 5.6 4.4 10 10 10h325.6c5.6 0 10-4.4 10-10v-325.6zM795.2 682.6l-25-25-49.8 49.8 25 25c3.6 3.6 14.2 3.6 17.8 0l32-32c3.4-3.6 3.4-10.6 0-17.8v0zM556.6 543.8l149.4 149.4 49.8-49.8-149.2-149.4h-49.8v49.8h-0.2z" />
<glyph unicode="&#xe908;" glyph-name="expand-tree" d="M390.419 598.824v-116.965h187.759v-58.482h-246.242v175.447zM282.689 681.929h172.369v-104.653h-172.369v104.653zM608.959 503.406h178.525v-104.653h-178.525v104.653zM390.419 435.688v-120.042h187.759v-58.482h-246.242v178.525zM608.959 340.269h178.525v-104.653h-178.525v104.653zM70.305 706.555v163.136h163.136v-27.702h-113.886l123.121-126.199-21.546-18.468-123.121 126.199v-113.886l-27.702-3.078zM230.362 26.313h-163.136v163.136h27.702v-113.886l126.199 123.121 18.468-21.546-126.199-123.121h113.886l3.078-27.702zM793.639 869.688h163.136v-163.136h-27.702v113.886l-126.199-123.121-18.468 21.546 126.199 123.121h-113.886l-3.078 27.702zM956.775 189.446v-163.136h-163.136v27.702h113.886l-123.121 126.199 21.546 18.468 123.121-126.199v113.886l27.702 3.078z" />
<glyph unicode="&#xe909;" glyph-name="unexpand-tree" d="M373.489 598.824v-116.965h187.759v-58.482h-246.242v175.447zM265.759 681.928h172.369v-104.653h-172.369v104.653zM592.029 503.406h178.525v-104.653h-178.525v104.653zM373.489 435.687v-120.042h187.759v-58.482h-246.242v178.525zM592.029 340.268h178.525v-104.653h-178.525v104.653zM764.398 35.544v163.136h163.136v-27.702h-113.886l123.121-126.199-21.546-18.468-123.121 126.199v-113.886l-27.702-3.078zM927.533 697.319h-163.136v163.136h27.702v-113.886l126.199 123.121 18.468-21.546-126.199-123.121h113.886l3.078-27.702zM99.546 198.682h163.136v-163.136h-27.702v113.886l-126.199-123.121-18.468 21.546 126.199 123.121h-113.886l-3.078 27.702zM259.603 857.376v-163.136h-163.136v27.702h113.886l-123.121 126.199 21.546 18.468 123.121-126.199v113.886l27.702 3.078z" />
<glyph unicode="&#xe90a;" glyph-name="hide-empty" d="M151.059 849.778l-42.154-42.154 263.46-263.46v2.634l60.596-60.596v-2.634l437.345-437.345 44.789 42.154c-255.557 252.923-511.114 505.844-764.036 761.401zM185.309 346.569h-110.654v189.692h110.654v-42.154h-60.596v-28.981h55.326v-42.154h-55.326v-36.884h60.596v-39.519zM301.231 346.569l-39.519 137c2.634-23.711 2.634-42.154 2.634-52.692v-81.673h-44.789v189.692h68.5l39.519-134.365 39.519 134.365h68.5v-189.692h-47.423v81.673c0 5.269 0 7.904 0 13.173s0 18.442 2.634 39.519v0l-36.884-134.365h-52.692zM722.769 346.569h-50.057v147.538h-44.789v42.154h142.269v-42.154h-44.789v-147.538zM862.403 465.126l31.615 71.134h55.326l-63.231-115.923v-73.769h-50.057v71.134l-63.231 115.923h55.326l34.25-68.5zM525.173 480.933v10.539h13.173c13.173 0 21.077-5.269 21.077-18.442 0-7.904-2.634-13.173-7.904-18.442 0 0 0 0-2.634 0 10.539-10.539 23.711-23.711 34.25-34.25 2.634 2.634 5.269 2.634 7.904 5.269 13.173 10.539 18.442 28.981 18.442 50.057 0 18.442-5.269 34.25-18.442 44.789s-28.981 15.808-52.692 15.808h-65.865v-2.634c18.442-18.442 34.25-34.25 52.692-52.692zM472.481 438.778v-92.212h52.692v42.154z" />
<glyph unicode="&#xe90b;" glyph-name="dragonpay-more" d="M500.050 243.016c-7.354-9.192-11.031-20.223-11.031-36.768 0-23.899 9.192-36.768 29.415-36.768 11.031 0 18.384 3.677 23.899 11.031s9.192 18.384 9.192 34.93l1.838 38.607c-5.515 1.838-12.869 1.838-20.223 1.838-14.707 1.838-25.738-3.677-33.092-12.869zM753.752 323.907c-3.677 12.869-9.192 23.899-18.384 34.93-18.384 22.061-51.476 79.052-40.445 159.943-9.192 62.506-58.829-106.628-99.275-88.244-23.899 11.031 29.415 71.698 38.607 134.205 0 0 0 1.838 0 1.838 3.677 27.576-34.93 38.607-47.799 14.707-7.354-12.869-18.384-22.061-38.607-22.061-62.506 1.838 23.899 112.144 11.031 95.598-11.031-14.707 1.838 3.677 3.677 5.515 5.515 16.546 18.384 79.052-29.415 104.79-55.153 29.415-45.961 128.689-33.092 148.912s-106.628-47.799-101.113-176.488c0-44.122 58.829-117.659 9.192-136.043-16.546-5.515-27.576 20.223-33.092 53.314-3.677 22.061-36.768 22.061-40.445 0-9.192-51.476 0-104.79 38.607-152.589 0-1.838 1.838-1.838 1.838-3.677 18.384-31.253 18.384-91.921-18.384-95.598-38.607-3.677-44.122 56.991-55.153 86.406 0 0 0 0 0 1.838-1.838 3.677-1.838 36.768-22.061 31.253-18.384-5.515-23.899-22.061-20.223-40.445 7.354-34.93 33.092-90.083 36.768-119.497 16.546-139.72-56.991-200.388 27.576-299.662 75.375-88.244 165.458-91.921 176.488-93.759 0 0 1.838 0 1.838 0 56.991 0 231.641 23.899 257.379 198.549 14.707 69.86 3.677 125.013-5.515 156.266zM656.316 182.348c-5.515-12.869-12.869-23.899-23.899-31.253s-20.223-11.031-33.092-11.031c-9.192 0-16.546 1.838-22.061 5.515s-11.031 9.192-14.707 16.546h-1.838c-12.869-14.707-27.576-22.061-47.799-22.061s-36.768 5.515-47.799 18.384c-11.031 12.869-18.384 29.415-18.384 49.637 0 23.899 7.354 44.122 22.061 58.829s34.93 22.061 60.668 22.061c9.192 0 20.223-1.838 33.092-3.677 11.031-1.838 22.061-3.677 29.415-7.354l-3.677-82.729c0-16.546 3.677-23.899 12.869-23.899 7.354 0 12.869 5.515 18.384 16.546 3.677 11.031 7.354 23.899 7.354 42.284s-3.677 34.93-11.031 49.637c-7.354 14.707-18.384 25.738-33.092 33.092s-29.415 11.031-47.799 11.031c-23.899 0-42.284-5.515-60.668-14.707-16.546-9.192-29.415-23.899-38.607-40.445-9.192-18.384-12.869-38.607-12.869-62.506 0-31.253 9.192-55.153 25.738-73.537s40.445-25.738 73.537-25.738c12.869 0 25.738 1.838 40.445 3.677s29.415 7.354 42.284 11.031v-33.092c-23.899-11.031-51.476-14.707-80.89-14.707-44.122 0-77.214 11.031-101.113 34.93-23.899 22.061-36.768 55.153-36.768 95.598 0 27.576 5.515 53.314 18.384 77.214s29.415 40.445 53.314 53.314c20.223 11.031 45.961 18.384 75.375 18.384 25.738 0 47.799-5.515 68.022-14.707 20.223-11.031 34.93-25.738 45.961-44.122s16.546-40.445 16.546-66.183c0-16.546-3.677-31.253-7.354-45.961zM847.512 785.35c-27.576 0-49.637 22.061-49.637 49.637s22.061 49.637 49.637 49.637c27.576 0 49.637-22.061 49.637-49.637s-22.061-49.637-49.637-49.637zM849.35 634.6c-27.576 0-49.637 22.061-49.637 49.637s22.061 49.637 49.637 49.637 49.637-22.061 49.637-49.637c0-25.738-22.061-47.799-49.637-49.637zM851.189 485.688c-27.576 0-49.637 22.061-49.637 49.637s22.061 49.637 49.637 49.637c27.576 0 49.637-22.061 49.637-49.637s-22.061-49.637-49.637-49.637z" />
<glyph unicode="&#xe90c;" glyph-name="cash-adjust" d="M213.257 790.865h770.298v-512.919h-770.298v512.919zM597.487 662.176c71.698 0 128.689-56.991 128.689-128.689s-56.991-128.689-128.689-128.689-128.689 56.991-128.689 128.689 58.829 128.689 128.689 128.689zM384.23 704.46c0-47.799-38.607-86.406-86.406-86.406v-170.973c47.799 0 86.406-38.607 86.406-86.406h428.352c0 47.799 38.607 86.406 86.406 86.406v170.973c-47.799 0-86.406 38.607-86.406 86.406h-428.352zM42.284 619.892h86.406v-428.352h683.892v-86.406h-770.298c0 0 0 514.758 0 514.758z" />
<glyph unicode="&#xe90d;" glyph-name="cash-transfer" d="M40.445 678.722h711.469v-474.312h-711.469v474.312zM395.26 561.063c66.183 0 119.497-53.314 119.497-119.497s-53.314-119.497-119.497-119.497-119.497 53.314-119.497 119.497 55.153 119.497 119.497 119.497zM198.549 599.67c0-44.122-34.93-79.052-79.052-79.052v-158.104c44.122 0 79.052-34.93 79.052-79.052h395.26c0 44.122 34.93 79.052 79.052 79.052v158.104c-44.122 0-79.052 34.93-79.052 79.052 0 0-395.26 0-395.26 0zM1001.939 162.126h-104.79v198.549h-71.698v-198.549h-104.79l141.558-141.558zM720.661 733.874h104.79v-198.549h71.698v198.549h104.79l-139.72 141.558z" />
<glyph unicode="&#xe90e;" glyph-name="dragonpay" d="M499.322 230.522c-7.802-9.752-11.703-21.456-11.703-39.009 0-25.356 9.752-39.009 31.208-39.009 11.703 0 19.505 3.901 25.356 11.703s9.752 19.505 9.752 37.059l1.95 40.96c-5.851 1.95-13.653 1.95-21.456 1.95-15.603 1.95-27.307-3.901-35.109-13.653zM768.487 316.343c-3.901 13.653-9.752 25.356-19.505 37.059-19.505 23.406-54.614 83.87-42.91 169.692-9.752 66.316-62.415-113.127-105.326-93.623-25.356 11.703 31.208 76.068 40.96 142.385 0 0 0 1.95 0 1.95 3.901 29.257-37.059 40.96-50.712 15.603-7.802-13.653-19.505-23.406-40.96-23.406-66.316 1.95 25.356 118.979 11.703 101.425-11.703-15.603 1.95 3.901 3.901 5.851 5.851 17.555 19.505 83.87-31.208 111.177-58.515 31.208-48.762 136.533-35.109 157.989s-113.127-50.712-107.276-187.245c0-46.811 62.415-124.831 9.752-144.335-17.555-5.851-29.257 21.456-35.109 56.564-3.901 23.406-39.009 23.406-42.91 0-9.752-54.614 0-111.177 40.96-161.89 0-1.95 1.95-1.95 1.95-3.901 19.505-33.158 19.505-97.524-19.505-101.425-40.96-3.901-46.811 60.465-58.515 91.673 0 0 0 0 0 1.95-1.95 3.901-1.95 39.009-23.406 33.158-19.505-5.851-25.356-23.406-21.456-42.91 7.802-37.059 35.109-95.574 39.009-126.781 17.555-148.236-60.465-212.602 29.257-317.927 79.969-93.623 175.543-97.524 187.245-99.474 0 0 1.95 0 1.95 0 60.465 0 245.76 25.356 273.067 210.651 15.603 74.118 3.901 132.633-5.851 165.791zM665.112 166.156c-5.851-13.653-13.653-25.356-25.356-33.158s-21.456-11.703-35.109-11.703c-9.752 0-17.555 1.95-23.406 5.851s-11.703 9.752-15.603 17.555h-1.95c-13.653-15.603-29.257-23.406-50.712-23.406s-39.009 5.851-50.712 19.505c-11.703 13.653-19.505 31.208-19.505 52.663 0 25.356 7.802 46.811 23.406 62.415s37.059 23.406 64.366 23.406c9.752 0 21.456-1.95 35.109-3.901 11.703-1.95 23.406-3.901 31.208-7.802l-3.901-87.772c0-17.555 3.901-25.356 13.653-25.356 7.802 0 13.653 5.851 19.505 17.555 3.901 11.703 7.802 25.356 7.802 44.861s-3.901 37.059-11.703 52.663c-7.802 15.603-19.505 27.307-35.109 35.109s-31.208 11.703-50.712 11.703c-25.356 0-44.861-5.851-64.366-15.603-17.555-9.752-31.208-25.356-40.96-42.91-9.752-19.505-13.653-40.96-13.653-66.316 0-33.158 9.752-58.515 27.307-78.019s42.91-27.307 78.019-27.307c13.653 0 27.307 1.95 42.91 3.901s31.208 7.802 44.861 11.703v-35.109c-25.356-11.703-54.614-15.603-85.82-15.603-46.811 0-81.92 11.703-107.276 37.059-25.356 23.406-39.009 58.515-39.009 101.425 0 29.257 5.851 56.564 19.505 81.92s31.208 42.91 56.564 56.564c21.456 11.703 48.762 19.505 79.969 19.505 27.307 0 50.712-5.851 72.168-15.603 21.456-11.703 37.059-27.307 48.762-46.811s17.555-42.91 17.555-70.217c0-17.555-3.901-33.158-7.802-48.762z" />
<glyph unicode="&#xe90f;" glyph-name="delete-all" d="M472.441 143.579v343.978h-75.676v-326.78c0-10.319 3.44-20.639 6.879-30.958h55.037c6.879 0 13.76 6.879 13.76 13.76zM788.902 776.501l-41.277 41.277h-206.389l-41.277-41.277h-144.471v-51.597h72.235l30.958-30.958h471.251v82.555zM610.033 521.956h-30.958v-374.936c0-24.079-6.879-48.156-20.639-65.356h254.545c44.718 0 82.555 37.837 82.555 82.555v491.892h-282.062v-134.151zM554.999 638.909v-65.356h-460.932v65.356h113.513l34.398 30.958h165.109l34.398-30.958h113.513zM128.463 143.579v395.577h395.577v-395.577c0-34.398-30.958-65.356-65.356-65.356h-261.424c-37.837 0-68.797 30.958-68.797 65.356v0z" />
<glyph unicode="&#xe910;" glyph-name="end-chat" d="M405.335 537.601h216.178v-42.667h-216.178v42.667zM857.602 878.932h-691.2c-45.511 0-85.333-39.822-85.333-85.333v-776.533l170.667 170.667h605.867c45.511 0 85.333 39.822 85.333 88.178v517.689c0 45.511-36.978 85.333-85.333 85.333zM513.422 301.51c-119.467 0-216.178 96.711-216.178 216.178s96.711 216.178 216.178 216.178 216.178-96.711 216.178-216.178-96.711-216.178-216.178-216.178z" />
<glyph unicode="&#xe911;" glyph-name="market" d="M439.978 150.4l-160.351 467.463h-5.437c5.437-95.123 8.154-157.633 8.154-190.247v-277.216h-127.737v595.2h192.965l157.633-453.875h2.717l168.505 453.875h192.965v-595.2h-133.173v282.653c0 13.589 0 29.897 0 46.203s2.717 62.511 5.437 138.608h-5.437l-173.939-467.463h-122.302z" />
<glyph unicode="&#xe912;" glyph-name="account-duplicate" d="M323.938 405.662c-110.277 0-328.862-55.139-328.862-163.446v-118.154h657.723v118.154c0 108.308-218.585 163.446-328.862 163.446zM304.246 498.216c78.769 0 141.784 63.015 141.784 141.784s-63.015 141.784-141.784 141.784c-78.769 0-141.784-63.015-141.784-141.784 1.969-78.769 63.015-141.784 141.784-141.784zM707.939 502.154c76.8 0 137.846 61.046 137.846 137.846s-61.046 137.846-137.846 137.846c-76.8 0-137.846-61.046-137.846-137.846s61.046-137.846 137.846-137.846zM707.939 718.77c43.323 0 78.769-35.447 78.769-78.769s-35.447-78.769-78.769-78.769c-43.323 0-78.769 35.447-78.769 78.769s35.447 78.769 78.769 78.769zM717.785 403.693c-35.447 0-82.708-5.907-128-17.723 27.569-15.753 53.169-33.477 70.892-55.139 19.692 1.969 39.384 3.939 57.108 3.939 112.246 0 230.4-55.139 230.4-80.738v-57.108h-254.031c1.969-27.569 0-51.2 0-68.923h324.923v126.031c0 98.462-200.862 149.662-301.292 149.662z" />
<glyph unicode="&#xe913;" glyph-name="group-new" d="M325.374 405.985c-109.436 0-326.351-54.718-326.351-162.199v-117.252h652.702v117.252c0 107.481-216.916 162.199-326.351 162.199zM286.29 497.832c78.168 0 140.702 62.534 140.702 140.702s-62.534 140.702-140.702 140.702c-78.168 0-140.702-62.534-140.702-140.702 1.954-78.168 62.534-140.702 140.702-140.702zM624.366 405.985c-13.679 0-29.313 0-44.947-1.954 54.718-39.084 150.473-91.848 150.473-160.244v-117.252h220.824v117.252c0 107.481-216.916 162.199-326.351 162.199zM624.366 497.832c78.168 0 140.702 62.534 140.702 140.702s-62.534 140.702-140.702 140.702-140.702-62.534-140.702-140.702c1.954-78.168 64.489-140.702 140.702-140.702zM854.962 808.55h-107.481v60.58h107.481v109.436h60.58v-109.436h107.481v-60.58h-107.481v-107.481h-60.58v107.481z" />
<glyph unicode="&#xe914;" glyph-name="clock-pause" d="M431.21 616.395c-186.889 0-338.738-151.848-338.738-338.738s151.848-338.738 338.738-338.738c186.889 0 338.738 151.848 338.738 338.738s-151.848 338.738-338.738 338.738zM431.21 513.217c128.487 0 233.612-105.126 233.612-233.612s-105.126-233.612-233.612-233.612c-128.487 0-233.612 105.126-233.612 233.612s103.178 233.612 233.612 233.612zM382.54 423.666v-177.156l153.795-89.551 36.989 62.296-116.806 68.137v136.273zM904.274 554.099h116.806v408.821h-116.806zM672.609 554.099h116.806v408.821h-116.806c0 0 0-408.821 0-408.821z" />
<glyph unicode="&#xe915;" glyph-name="clock-play" d="M431.056 616.716c-187.245 0-339.383-152.137-339.383-339.383s152.137-339.383 339.383-339.383c187.245 0 339.383 152.137 339.383 339.383s-152.137 339.383-339.383 339.383zM431.056 513.341c128.732 0 234.057-105.326 234.057-234.057s-105.326-234.057-234.057-234.057c-128.732 0-234.057 105.326-234.057 234.057s103.375 234.057 234.057 234.057zM382.293 423.619v-177.493l154.087-89.722 37.059 62.415-117.028 68.267v136.533zM686.568 961.951v-421.303l329.63 210.651-329.63 210.651z" />
<glyph unicode="&#xe916;" glyph-name="clock-quarter" d="M433.719 670.899c-181.085 0-328.219-147.133-328.219-328.219s147.133-328.219 328.219-328.219c181.085 0 328.219 147.133 328.219 328.219s-147.133 328.219-328.219 328.219zM433.719 570.925c124.496 0 226.358-101.861 226.358-226.358s-101.861-226.358-226.358-226.358c-124.496 0-226.358 101.861-226.358 226.358s99.974 226.358 226.358 226.358zM386.56 484.155v-171.654l149.019-86.77 35.84 60.361-113.179 66.021v132.041zM454.467 880.281v0c-15.090 0-32.067 0-47.159-1.885v-101.861c15.090 1.885 32.067 3.773 47.159 3.773 220.699 0 399.899-179.2 399.899-399.899 0-11.319 0-22.635-1.885-33.955h101.861c0 11.319 1.885 20.75 1.885 32.067 1.885 275.401-224.471 501.76-501.76 501.76zM386.56 910.462h71.68v-175.427h-71.68v175.427zM818.525 393.612h177.314v-64.134h-177.314v64.134z" />
<glyph unicode="&#xe917;" glyph-name="clock-stop" d="M431.056 616.716c-187.245 0-339.383-152.137-339.383-339.383s152.137-339.383 339.383-339.383c187.245 0 339.383 152.137 339.383 339.383s-152.137 339.383-339.383 339.383zM431.056 513.341c128.732 0 234.057-105.326 234.057-234.057s-105.326-234.057-234.057-234.057c-128.732 0-234.057 105.326-234.057 234.057s103.375 234.057 234.057 234.057zM382.293 423.619v-177.493l154.087-89.722 37.059 62.415-117.028 68.267v136.533zM1031.802 599.162h-362.788v362.788h362.788v-362.788z" />
<glyph unicode="&#xe918;" glyph-name="layout-left-hide" d="M238.995 774.32l768.46-689.408-60.668-69.86h-1.838l-926.564 823.612 71.698 66.183 148.912-130.528zM875.088 320.23v483.504c0 49.637-40.445 88.244-88.244 88.244h-533.142c-1.838 0-5.515 0-7.354 0l25.738-25.738 603.002-546.011zM430.19 270.592h-178.327v354.815c0 0 36.768 0 69.86 0l-158.104 143.397v-676.539c0-49.637 40.445-88.244 88.244-88.244h533.142c49.637 0 88.244 40.445 88.244 88.244v34.93l-443.059 400.776v-257.379z" />
<glyph unicode="&#xe919;" glyph-name="layout-left" d="M251.864 891.978h533.142c49.637 0 88.244-40.445 88.244-88.244v-711.469c0-49.637-40.445-88.244-88.244-88.244h-533.142c-49.637 0-88.244 40.445-88.244 88.244v711.469c0 49.637 40.445 88.244 88.244 88.244zM251.864 625.408v-356.654h178.327v356.654c0 0-178.327 0-178.327 0z" />
<glyph unicode="&#xe91a;" glyph-name="skip-warn" d="M827.49 496.786c-88.901 75.891-201.653 123.594-329.584 123.594-221.169 0-407.643-145.278-472.694-344.763l112.752-36.861c49.872 151.781 192.979 262.367 362.108 262.367 93.238 0 177.802-34.693 245.019-88.901l-173.466-173.466h429.327v429.327l-173.466-171.297zM493.569 238.756c0-67.063-54.365-121.426-121.426-121.426s-121.426 54.365-121.426 121.426c0 67.063 54.365 121.426 121.426 121.426s121.426-54.365 121.426-121.426zM766.776 958.638h93.238v-247.188h-93.238v247.188zM762.442 663.747h99.743v-75.891h-99.743v75.891z" />
<glyph unicode="&#xe91b;" glyph-name="skip" d="M816.151 495.033c-85.706 73.164-194.406 119.152-317.739 119.152-213.22 0-392.993-140.056-455.705-332.372l108.7-35.536c48.079 146.327 186.044 252.937 349.095 252.937 89.887 0 171.411-33.447 236.213-85.706l-167.232-167.232h413.897v413.897l-167.232-165.14zM494.231 246.277c0-64.652-52.41-117.062-117.062-117.062s-117.062 52.41-117.062 117.062c0 64.652 52.41 117.062 117.062 117.062s117.062-52.41 117.062-117.062z" />
<glyph unicode="&#xe91c;" glyph-name="kiosk" d="M577.264 535.325v-125.013h-136.043v262.894h229.803v31.253c0 68.022-27.576 132.366-75.375 180.165s-112.144 75.375-180.165 75.375c-68.022 0-132.366-25.738-180.165-75.375-47.799-47.799-75.375-112.144-75.375-180.165v-31.253h218.772v-262.894h-233.479v-62.506h79.052v-310.693h86.406c14.707-56.991 66.183-101.113 128.689-101.113s113.982 42.284 128.689 101.113h169.135v-101.113h62.506v101.113h77.214v498.212h-299.662zM606.679 735.713h-79.052c-3.677 62.506-18.384 110.305-36.768 145.235 58.829-23.899 104.79-79.052 115.82-145.235zM307.016 735.713h-82.729c11.031 66.183 56.991 123.174 119.497 147.074-16.546-33.092-33.092-82.729-36.768-147.074zM369.522 735.713c3.677 75.375 29.415 123.174 45.961 147.074 18.384-23.899 42.284-71.698 47.799-147.074h-93.759zM511.081 70.205c0-1.838 0-1.838 0 0v0c0-38.607-31.253-69.86-69.86-69.86s-69.86 31.253-69.86 69.86c0 0 0 0 0 1.838 0 36.768 29.415 68.022 66.183 69.86 1.838 0 1.838 0 3.677 0 5.515 0 11.031 0 18.384-1.838 27.576-11.031 49.637-38.607 51.476-69.86 0 0 0 0 0 0zM816.259 99.619h-246.348c0 0 0 1.838 0 1.838s0 1.838 0 1.838 0 1.838-1.838 3.677c0 0 0 1.838 0 1.838 0 1.838 0 1.838-1.838 3.677 0 0 0 1.838 0 1.838 0 1.838-1.838 3.677-1.838 5.515 0 0 0 0 0 0 0 1.838-1.838 3.677-1.838 5.515 0 0 0 1.838 0 1.838 0 1.838-1.838 1.838-1.838 3.677 0 0 0 1.838-1.838 1.838 0 1.838-1.838 1.838-1.838 3.677 0 0 0 1.838-1.838 1.838 0 1.838-1.838 1.838-1.838 3.677 0 0 0 1.838-1.838 1.838 0 1.838-1.838 1.838-1.838 3.677 0 0 0 1.838-1.838 1.838-1.838 1.838-1.838 3.677-3.677 3.677 0 0 0 0 0 0-1.838 1.838-1.838 3.677-3.677 3.677 0 0 0 0-1.838 1.838s-1.838 1.838-3.677 3.677c0 0-1.838 1.838-1.838 1.838s-1.838 1.838-3.677 1.838c0 0-1.838 1.838-1.838 1.838-1.838 0-1.838 1.838-3.677 1.838 0 0-1.838 1.838-1.838 1.838-1.838 0-1.838 1.838-3.677 1.838 0 0-1.838 0-1.838 1.838-1.838 1.838-3.677 1.838-5.515 3.677 0 0 0 0 0 0-1.838 1.838-3.677 1.838-5.515 3.677 0 0-1.838 0-1.838 1.838-1.838 0-1.838 1.838-3.677 1.838 0 0-1.838 0-1.838 1.838-1.838 0-1.838 1.838-3.677 1.838 0 0-1.838 0-1.838 1.838-1.838 0-1.838 1.838-3.677 1.838 0 0-1.838 0-1.838 0-1.838 0-1.838 1.838-3.677 1.838 0 0-1.838 0-1.838 0-1.838 0-3.677 1.838-5.515 1.838 0 0 0 0 0 0-1.838 0-3.677 1.838-5.515 1.838 0 0-1.838 0-1.838 0-1.838 0-1.838 0-3.677 1.838 0 0-1.838 0-1.838 0-1.838 0-1.838 0-3.677 0 0 0-1.838 0-1.838 0-1.838 0-1.838 0-3.677 0 0 0-1.838 0-1.838 0-1.838 0-3.677 0-3.677 0s-1.838 0-1.838 0-3.677 0-5.515 0c-1.838 0-3.677 0-5.515 0 0 0-1.838 0-1.838 0-1.838 0-3.677 0-3.677 0s-1.838 0-1.838 0-1.838 0-3.677 0c0 0-1.838 0-1.838 0-1.838 0-1.838 0-3.677 0 0 0-1.838 0-1.838 0-1.838 0-1.838 0-3.677-1.838 0 0-1.838 0-1.838 0-1.838 0-3.677-1.838-5.515-1.838 0 0 0 0 0 0-1.838 0-3.677-1.838-5.515-1.838 0 0-1.838 0-1.838 0-1.838 0-1.838-1.838-3.677-1.838 0 0-1.838 0-1.838 0-1.838 0-1.838-1.838-3.677-1.838 0 0-1.838 0-1.838-1.838-1.838 0-1.838-1.838-3.677-1.838 0 0-1.838 0-1.838-1.838-1.838 0-1.838-1.838-3.677-1.838 0 0-1.838 0-1.838-1.838-1.838-1.838-3.677-1.838-5.515-3.677 0 0 0 0 0 0-1.838-1.838-3.677-1.838-5.515-3.677 0 0-1.838 0-1.838-1.838-1.838 0-1.838-1.838-3.677-1.838 0 0-1.838-1.838-1.838-1.838-1.838 0-1.838-1.838-3.677-1.838 0 0-1.838-1.838-1.838-1.838-1.838 0-1.838-1.838-3.677-1.838 0 0-1.838-1.838-1.838-1.838-1.838-1.838-1.838-1.838-3.677-3.677 0 0 0 0-1.838-1.838s-1.838-3.677-3.677-3.677c0 0 0 0 0 0-1.838-1.838-1.838-3.677-3.677-3.677 0 0 0-1.838-1.838-1.838 0-1.838-1.838-1.838-1.838-3.677 0 0 0-1.838-1.838-1.838 0-1.838-1.838-1.838-1.838-3.677 0 0 0-1.838-1.838-1.838 0-1.838-1.838-1.838-1.838-3.677 0 0 0-1.838-1.838-1.838 0-1.838-1.838-1.838-1.838-3.677 0 0 0-1.838 0-1.838 0-1.838-1.838-3.677-1.838-5.515 0 0 0 0 0 0 0-1.838-1.838-3.677-1.838-5.515 0 0 0-1.838 0-1.838 0-1.838 0-1.838-1.838-3.677 0 0 0-1.838 0-1.838 0-1.838 0-1.838-1.838-3.677 0 0 0-1.838 0-1.838s0-1.838 0-1.838h-23.899v145.235h529.465l-1.838-145.235zM816.259 307.361h-529.465v42.284h529.465v-42.284zM816.259 412.151h-176.488v62.506h176.488v-62.506z" />
<glyph unicode="&#xe91d;" glyph-name="opera" d="M766.621 857.048c-69.86 47.799-156.266 75.375-253.702 75.375-90.083 0-169.135-22.061-235.318-62.506-128.689-77.214-207.741-224.287-207.741-409.968 0-251.864 176.488-481.666 443.059-481.666s443.059 229.803 443.059 481.666c0 176.488-71.698 316.208-189.357 397.099zM512.919 846.018c143.397 0 170.973-198.549 170.973-378.715 0-167.296-16.546-391.583-169.135-391.583-154.427 0-174.65 226.126-174.65 393.422 1.838 180.165 29.415 376.876 172.811 376.876v0z" />
<glyph unicode="&#xe91e;" glyph-name="remote, remote-betslip" d="M512.919 941.616c-128.689 0-244.51-51.476-329.077-136.043l60.668-60.668c69.86 69.86 163.619 112.144 270.248 112.144s200.388-42.284 270.248-112.144l60.668 60.668c-88.244 84.567-204.065 136.043-332.754 136.043zM303.339 686.075l60.668-60.668c38.607 38.607 91.921 62.506 150.75 62.506s112.144-23.899 150.75-62.506l60.668 60.668c-53.314 53.314-128.689 86.406-209.58 86.406s-159.943-33.092-213.257-86.406zM512.919 305.522c-45.961 0-84.567 38.607-84.567 84.567s38.607 84.567 84.567 84.567 84.567-38.607 84.567-84.567-38.607-84.567-84.567-84.567zM639.77 561.063h-253.702c-23.899 0-42.284-18.384-42.284-42.284v-509.242c0-23.899 18.384-42.284 42.284-42.284h253.702c23.899 0 42.284 18.384 42.284 42.284v509.242c0 22.061-20.223 42.284-42.284 42.284z" />
<glyph unicode="&#xe91f;" glyph-name="tablet" d="M801.551 176.833h-582.779v643.447h582.779zM590.133 57.336h-161.781v40.445h161.781zM751.914 941.616h-481.666c-66.183 0-121.336-53.314-121.336-121.336v-724.338c0-66.183 53.314-121.336 121.336-121.336h481.666c66.183 0 121.336 53.314 121.336 121.336v724.338c-1.838 68.022-55.153 121.336-121.336 121.336z" />
<glyph unicode="&#xe920;" glyph-name="export-group-all" horiz-adv-x="1296" d="M650.801 557.386c-112.144 0-336.431-56.991-336.431-169.135v-119.497h672.862v119.497c0 112.144-224.287 169.135-336.431 169.135zM959.655 557.386c-14.707 0-29.415 0-45.961-1.838 55.153-40.445 154.427-93.759 154.427-165.458v-119.497h227.964v119.497c0 110.305-224.287 167.296-336.431 167.296zM1090.183 114.327l-143.397 132.366c-3.677 3.677-9.192 3.677-12.869 1.838-5.515-1.838-7.354-5.515-7.354-11.031v-84.567h-257.379c-3.677 0-5.515-1.838-9.192-3.677-1.838-1.838-3.677-5.515-3.677-9.192v-71.698c0-3.677 1.838-5.515 3.677-9.192 1.838-1.838 5.515-3.677 9.192-3.677h257.379v-84.567c0-5.515 1.838-9.192 7.354-11.031s9.192-1.838 12.869 1.838l143.397 132.366c1.838 1.838 3.677 5.515 3.677 9.192 0 7.354-1.838 9.192-3.677 11.031zM498.212-5.171h-182.004c-18.384 0-34.93 14.707-34.93 34.93v152.589c0 18.384 14.707 34.93 34.93 34.93h182.004c18.384 0 34.93-14.707 34.93-34.93v-152.589c-1.838-20.223-16.546-34.93-34.93-34.93zM336.431 557.386c-112.144 0-336.431-56.991-336.431-169.135v-119.497h227.964v119.497c0 71.698 99.275 125.013 154.427 165.458-16.546 3.677-31.253 3.677-45.961 3.677zM413.645 798.219c0 34.93 12.869 68.022 33.092 91.921-25.738 31.253-66.183 51.476-110.305 51.476-79.052 0-143.397-64.345-143.397-143.397s64.345-143.397 143.397-143.397c44.122 0 84.567 20.223 110.305 51.476-20.223 23.899-33.092 55.153-33.092 91.921zM889.795 798.219c0 34.93-12.869 68.022-33.092 91.921 25.738 31.253 66.183 51.476 110.305 51.476 79.052 0 143.397-64.345 143.397-143.397s-64.345-143.397-143.397-143.397c-44.122 0-84.567 20.223-110.305 51.476 22.061 23.899 33.092 55.153 33.092 91.921zM650.801 652.984c79.052 0 143.397 64.345 143.397 143.397s-64.345 143.397-143.397 143.397-143.397-64.345-143.397-143.397 64.345-143.397 143.397-143.397z" />
<glyph unicode="&#xe921;" glyph-name="export-group" horiz-adv-x="1296" d="M503.727 557.386c-112.144 0-336.431-56.991-336.431-169.135v-119.497h672.862v119.497c0 112.144-224.287 169.135-336.431 169.135zM812.582 557.386c-14.707 0-29.415 0-45.961-1.838 55.153-40.445 154.427-93.759 154.427-165.458v-119.497h227.964v119.497c0 110.305-224.287 167.296-336.431 167.296zM1090.183 114.327l-143.397 132.366c-3.677 3.677-9.192 3.677-12.869 1.838-5.515-1.838-7.354-5.515-7.354-11.031v-84.567h-257.379c-3.677 0-5.515-1.838-9.192-3.677-1.838-1.838-3.677-5.515-3.677-9.192v-71.698c0-3.677 1.838-5.515 3.677-9.192 1.838-1.838 5.515-3.677 9.192-3.677h257.379v-84.567c0-5.515 1.838-9.192 7.354-11.031s9.192-1.838 12.869 1.838l143.397 132.366c1.838 1.838 3.677 5.515 3.677 9.192 0 7.354-1.838 9.192-3.677 11.031zM498.212-5.171h-182.004c-18.384 0-34.93 14.707-34.93 34.93v152.589c0 18.384 14.707 34.93 34.93 34.93h182.004c18.384 0 34.93-14.707 34.93-34.93v-152.589c-1.838-20.223-16.546-34.93-34.93-34.93zM742.722 798.219c0 34.93-12.869 68.022-33.092 91.921 25.738 31.253 66.183 51.476 110.305 51.476 79.052 0 143.397-64.345 143.397-143.397s-64.345-143.397-143.397-143.397c-44.122 0-84.567 20.223-110.305 51.476 22.061 23.899 33.092 55.153 33.092 91.921zM503.727 652.984c79.052 0 143.397 64.345 143.397 143.397s-64.345 143.397-143.397 143.397-143.397-64.345-143.397-143.397 64.345-143.397 143.397-143.397z" />
<glyph unicode="&#xe922;" glyph-name="export-account" horiz-adv-x="1296" d="M650.801 557.386c-112.144 0-336.431-56.991-336.431-169.135v-119.497h672.862v119.497c0 112.144-224.287 169.135-336.431 169.135zM1090.183 114.327l-143.397 132.366c-3.677 3.677-9.192 3.677-12.869 1.838-5.515-1.838-7.354-5.515-7.354-11.031v-84.567h-257.379c-3.677 0-5.515-1.838-9.192-3.677-1.838-1.838-3.677-5.515-3.677-9.192v-71.698c0-3.677 1.838-5.515 3.677-9.192 1.838-1.838 5.515-3.677 9.192-3.677h257.379v-84.567c0-5.515 1.838-9.192 7.354-11.031s9.192-1.838 12.869 1.838l143.397 132.366c1.838 1.838 3.677 5.515 3.677 9.192 0 7.354-1.838 9.192-3.677 11.031zM498.212-5.171h-182.004c-18.384 0-34.93 14.707-34.93 34.93v152.589c0 18.384 14.707 34.93 34.93 34.93h182.004c18.384 0 34.93-14.707 34.93-34.93v-152.589c-1.838-20.223-16.546-34.93-34.93-34.93zM650.801 652.984c79.052 0 143.397 64.345 143.397 143.397s-64.345 143.397-143.397 143.397-143.397-64.345-143.397-143.397 64.345-143.397 143.397-143.397z" />
<glyph unicode="&#xe923;" glyph-name="library, review" horiz-adv-x="1296" d="M648.962 654.822c79.052 0 143.397 64.345 143.397 143.397s-64.345 143.397-143.397 143.397-143.397-64.345-143.397-143.397c1.838-79.052 64.345-143.397 143.397-143.397zM648.962 487.526c-112.144 104.79-262.894 169.135-428.352 169.135v-523.95c167.296 0 316.208-64.345 428.352-169.135 112.144 104.79 262.894 169.135 428.352 169.135v523.95c-165.458-1.838-314.37-66.183-428.352-169.135z" />
<glyph unicode="&#xe924;" glyph-name="thirdparty" horiz-adv-x="1296" d="M523.95 366.19c-104.79 0-316.208-49.637-318.047-156.266v-112.144l632.417-5.515v112.144c1.838 106.628-207.741 159.943-314.37 161.781zM523.95 456.273c75.375 0 136.043 60.668 136.043 136.043s-60.668 136.043-136.043 136.043c-75.375 0-136.043-60.668-136.043-136.043s60.668-136.043 136.043-136.043zM1117.759 833.149h-275.763c-36.768 0-66.183-29.415-66.183-66.183v-330.916c0-36.768 29.415-66.183 66.183-66.183h275.763c36.768 0 66.183 29.415 66.183 66.183v330.916c-1.838 36.768-31.253 66.183-66.183 66.183zM1082.829 445.242c-22.061-23.899-53.314-34.93-95.598-34.93-53.314 0-88.244 16.546-110.305 51.476-11.031 18.384-16.546 42.284-18.384 71.698h71.698c0-14.707 1.838-27.576 7.354-36.768 9.192-18.384 25.738-27.576 47.799-27.576 14.707 0 27.576 5.515 36.768 14.707 11.031 9.192 16.546 23.899 16.546 42.284 0 23.899-9.192 40.445-29.415 49.637-11.031 3.677-29.415 7.354-53.314 7.354v51.476c23.899 0 40.445 1.838 49.637 7.354 16.546 7.354 23.899 22.061 23.899 44.122 0 14.707-3.677 25.738-12.869 34.93-7.354 9.192-20.223 12.869-34.93 12.869-16.546 0-29.415-5.515-38.607-16.546-7.354-11.031-11.031-25.738-11.031-44.122h-68.022c0 18.384 3.677 36.768 9.192 53.314 5.515 14.707 14.707 27.576 27.576 40.445 9.192 9.192 20.223 14.707 33.092 20.223s29.415 7.354 47.799 7.354c34.93 0 64.345-9.192 86.406-27.576s33.092-42.284 33.092-73.537c0-22.061-7.354-40.445-20.223-55.153-7.354-9.192-16.546-16.546-25.738-18.384 7.354 0 16.546-5.515 29.415-16.546 18.384-16.546 27.576-40.445 27.576-69.86 3.677-36.768-7.354-64.345-29.415-88.244z" />
<glyph unicode="&#xe925;" glyph-name="thumb-down, unlike" horiz-adv-x="1296" d="M990.908 351.483h194.873v582.779h-194.873zM797.874 936.101h-437.544c-40.445 0-75.375-23.899-90.083-58.829l-147.074-341.946c-3.677-11.031-7.354-22.061-7.354-34.93v-97.436c0-53.314 44.122-97.436 97.436-97.436h307.016l-45.961-222.449c-1.838-5.515-1.838-9.192-1.838-14.707 0-20.223 9.192-38.607 22.061-51.476l51.476-51.476 319.885 319.885c18.384 18.384 29.415 42.284 29.415 68.022v485.343c-1.838 53.314-44.122 97.436-97.436 97.436z" />
<glyph unicode="&#xe926;" glyph-name="view-alert, layout-pending" horiz-adv-x="1296" d="M1119.598 511.425v375.038h112.144v-375.038h-112.144zM1119.598 288.977v126.851h112.144v-126.851h-112.144zM728.014-23.555h303.339v364.007h-303.339zM0-23.555h303.339v790.521h-303.339zM364.007-23.555h303.339v364.007h-303.339v-364.007zM364.007 766.966v-365.846h669.185v365.846z" />
<glyph unicode="&#xe927;" glyph-name="view-remove, layout-failed" horiz-adv-x="1296" d="M728.014-23.555h303.339v364.007h-303.339zM0-23.555h303.339v790.521h-303.339zM364.007-23.555h303.339v364.007h-303.339v-364.007zM364.007 766.966v-365.846h303.339v365.846zM1217.034 941.616h-424.675c-33.092 0-60.668-27.576-60.668-60.668v-424.675c0-33.092 27.576-60.668 60.668-60.668h424.675c33.092 0 60.668 27.576 60.668 60.668v424.675c0 33.092-27.576 60.668-60.668 60.668zM1217.034 456.273h-424.675v424.675h424.675v-424.675zM1156.366 777.996l-108.467-108.467 108.467-108.467-42.284-42.284-108.467 108.467-108.467-108.467-42.284 42.284 108.467 108.467-108.467 108.467 42.284 42.284 108.467-108.467 108.467 108.467 42.284-42.284z" />
<glyph unicode="&#xf004;" glyph-name="account" horiz-adv-x="1365" d="M682.5 871.111c116.884 0 211.556-94.671 211.556-211.556s-94.671-211.556-211.556-211.556-211.556 94.671-211.556 211.556 94.671 211.556 211.556 211.556M682.5 342.223c233.769 0 423.111-94.671 423.111-211.556v-105.778h-846.222v105.778c0 116.884 189.342 211.556 423.111 211.556z" />
<glyph unicode="&#xf005;" glyph-name="account-alert" horiz-adv-x="1365" d="M576.722 871.111c116.884 0 211.556-94.671 211.556-211.556s-94.671-211.556-211.556-211.556-211.556 94.671-211.556 211.556 94.671 211.556 211.556 211.556M576.722 342.223c233.769 0 423.111-94.671 423.111-211.556v-105.778h-846.222v105.778c0 116.884 189.342 211.556 423.111 211.556M1105.611 448v264.444h105.778v-264.444h-105.778M1105.611 236.445v105.778h105.778v-105.778h-105.778z" />
<glyph unicode="&#xf008;" glyph-name="account-check" horiz-adv-x="1365" d="M518.944 846.222c109.796 0 199.111-89.316 199.111-199.111s-89.316-199.111-199.111-199.111-199.111 89.316-199.111 199.111 89.316 199.111 199.111 199.111M518.944 348.444c220.16 0 398.222-89.316 398.222-199.111v-99.556h-796.444v99.556c0 109.796 178.062 199.111 398.222 199.111M974.055 410.453l-156.444 170.667 65.991 65.991 90.453-90.453 204.231 204.231 65.991-80.213-270.222-270.222z" />
<glyph unicode="&#xf009;" glyph-name="account-circle" horiz-adv-x="1365" d="M682.5 130.56c-110.222 0-207.659 56.434-264.533 141.084 1.323 88.178 176.356 136.676 264.533 136.676s263.211-48.498 264.533-136.676c-56.875-84.651-154.311-141.084-264.533-141.084M682.5 756.623c73.188 0 132.267-59.079 132.267-132.267s-59.079-132.267-132.267-132.267-132.267 59.079-132.267 132.267 59.079 132.267 132.267 132.267M682.5 888.889c-243.371 0-440.889-197.518-440.889-440.889s197.518-440.889 440.889-440.889 440.889 197.518 440.889 440.889c0 243.812-198.4 440.889-440.889 440.889z" />
<glyph unicode="&#xf00a;" glyph-name="account-convert" horiz-adv-x="1365" d="M522.5 110.219l48 47.647 135.467-135.467-23.467-1.067c-223.647 0-406.754 172.087-424.888 391.114h53.333c12.8-133.687 96-246.754 211.554-302.221M842.5 785.78l-48-47.647-135.467 135.467 23.467 1.067c223.647 0 406.754-172.087 424.888-391.114h-53.333c-12.8 133.687-96 246.4-211.554 302.221M469.166 270.22c0 71.113 142.22 110.22 213.333 110.22s213.333-39.113 213.333-110.22v-35.553h-426.667v35.553M789.166 554.666c0-59.020-47.647-106.667-106.667-106.667s-106.667 47.647-106.667 106.667 47.647 106.667 106.667 106.667 106.667-47.647 106.667-106.667z" />
<glyph unicode="&#xf00b;" glyph-name="account-key" horiz-adv-x="1365" d="M633.612 545.777v-97.778h-48.889v-97.778h-97.778v97.778h-106.089c-20.044-57.2-74.311-97.778-138.356-97.778-81.156 0-146.667 65.511-146.667 146.667s65.511 146.667 146.667 146.667c64.044 0 118.311-40.578 138.356-97.778h252.756M242.501 545.777c-26.889 0-48.889-22-48.889-48.889s22-48.889 48.889-48.889 48.889 22 48.889 48.889-22 48.889-48.889 48.889M878.056 350.222c130.533 0 391.111-65.511 391.111-195.556v-97.778h-782.222v97.778c0 130.044 260.578 195.556 391.111 195.556M878.056 447.999c-108.044 0-195.556 87.511-195.556 195.556s87.511 195.556 195.556 195.556 195.556-87.511 195.556-195.556-87.511-195.556-195.556-195.556z" />
<glyph unicode="&#xf00c;" glyph-name="account-location" horiz-adv-x="1365" d="M932.402 302.224h-499.811v37.485c0 83.303 166.604 129.116 249.903 129.116s249.903-45.818 249.903-129.116M682.499 747.886c62.477 0 112.456-49.982 112.456-112.456s-49.982-112.456-112.456-112.456c-62.477 0-112.456 49.982-112.456 112.456s49.982 112.456 112.456 112.456M974.056 885.334h-583.109c-46.232 0-83.303-37.071-83.303-83.303v-583.109c0-45.818 37.485-83.303 83.303-83.303h166.604l124.952-124.952 124.952 124.952h166.604c45.818 0 83.303 37.485 83.303 83.303v583.109c0 46.232-37.485 83.303-83.303 83.303z" />
<glyph unicode="&#xf00d;" glyph-name="account-minus" horiz-adv-x="1365" d="M841.167 342.222c-141.213 0-423.111-70.342-423.111-211.556v-105.778h846.222v105.778c0 141.213-281.898 211.556-423.111 211.556M100.723 553.777v-105.778h423.111v105.778M841.167 447.999c116.884 0 211.556 94.671 211.556 211.556s-94.671 211.556-211.556 211.556-211.556-94.671-211.556-211.556 94.671-211.556 211.556-211.556z" />
<glyph unicode="&#xf00e;" glyph-name="account-multiple, group" horiz-adv-x="1365" d="M891.77 395.682c-15.172 0-32.437 0-50.748-2.615 60.688-43.947 103.065-102.019 103.065-180.496v-130.793h313.904v130.793c0 121.9-244.322 183.111-366.222 183.111M473.231 395.682c-121.9 0-366.222-61.211-366.222-183.111v-130.793h732.444v130.793c0 121.9-244.322 183.111-366.222 183.111M473.231 500.317c86.847 0 156.953 70.105 156.953 156.953s-70.105 156.953-156.953 156.953-156.953-70.105-156.953-156.953 70.105-156.953 156.953-156.953M891.77 500.317c86.847 0 156.953 70.105 156.953 156.953s-70.105 156.953-156.953 156.953-156.953-70.105-156.953-156.953 70.105-156.953 156.953-156.953z" />
<glyph unicode="&#xf010;" glyph-name="account-multiple-plus" horiz-adv-x="1365" d="M734.466 370.051c-103.932 0-311.795-51.966-311.795-155.898v-103.932h623.59v103.932c0 103.932-207.864 155.898-311.795 155.898M1078.48 361.737c43.132-37.415 71.713-86.264 71.713-147.583v-103.932h155.898v103.932c0 80.027-123.159 129.914-227.61 147.583M734.466 473.983c86.264 0 155.898 69.634 155.898 155.898s-69.634 155.898-155.898 155.898-155.898-69.634-155.898-155.898 69.634-155.898 155.898-155.898M994.295 473.983c86.264 0 155.898 69.634 155.898 155.898s-69.634 155.898-155.898 155.898c-16.629 0-32.738-2.598-47.809-7.275 29.621-42.092 47.809-93.538 47.809-148.622s-18.188-106.010-47.809-148.102c15.070-5.197 31.179-7.795 47.809-7.795M474.637 525.949h-155.898v155.898h-103.932v-155.898h-155.898v-103.932h155.898v-155.898h103.932v155.898h155.898v103.932z" />
<glyph unicode="&#xf011;" glyph-name="account-network" horiz-adv-x="1365" d="M726.589 271.645v-88.178h44.089c24.249 0 44.089-19.84 44.089-44.089h308.622v-88.178h-308.622c0-24.249-19.84-44.089-44.089-44.089h-176.356c-24.249 0-44.089 19.84-44.089 44.089h-308.622v88.178h308.622c0 24.249 19.84 44.089 44.089 44.089h44.089v88.178h-264.533v66.133c0 85.092 137.998 154.311 308.622 154.311s308.622-69.22 308.622-154.311v-66.133h-264.533M682.5 888.889c85.092 0 154.311-69.22 154.311-154.311s-69.22-154.311-154.311-154.311-154.311 69.22-154.311 154.311 69.22 154.311 154.311 154.311z" />
<glyph unicode="&#xf012;" glyph-name="account-off" horiz-adv-x="1365" d="M711.037 892.444c103.392 0 187.134-83.743 187.134-187.134 0-91.229-65.496-167.485-152.048-183.859l-218.948 218.948c16.374 86.549 92.632 152.048 183.859 152.048M724.137 424.608l361.17-361.17-59.415-59.882-140.352 140.352h-548.772v93.567c0 86.082 116.959 158.596 274.619 180.585l-331.696 331.696 59.415 59.415 385.030-384.563M1085.307 237.474v-55.204l-227.368 227.368c133.8-28.537 227.368-94.97 227.368-172.163z" />
<glyph unicode="&#xf014;" glyph-name="account-plus" horiz-adv-x="1365" d="M841.167 342.222c-141.213 0-423.111-70.342-423.111-211.556v-105.778h846.222v105.778c0 141.213-281.898 211.556-423.111 211.556M365.167 553.777v158.667h-105.778v-158.667h-158.667v-105.778h158.667v-158.667h105.778v158.667h158.667v105.778M841.167 447.999c116.884 0 211.556 94.671 211.556 211.556s-94.671 211.556-211.556 211.556-211.556-94.671-211.556-211.556 94.671-211.556 211.556-211.556z" />
<glyph unicode="&#xf015;" glyph-name="account-remove" horiz-adv-x="1365" d="M829.002 342.222c141.213 0 423.111-70.342 423.111-211.556v-105.778h-846.222v105.778c0 141.213 281.898 211.556 423.111 211.556M829.002 447.999c-116.884 0-211.556 94.671-211.556 211.556s94.671 211.556 211.556 211.556 211.556-94.671 211.556-211.556-94.671-211.556-211.556-211.556M300.113 575.462l112.124 112.653 75.102-75.102-112.653-112.124 112.653-112.124-75.102-75.102-112.124 112.653-112.124-112.653-75.102 75.102 112.653 112.124-112.653 112.124 75.102 75.102 112.124-112.653z" />
<glyph unicode="&#xf016;" glyph-name="account-search" horiz-adv-x="1365" d="M570.958 881.778c177.973 0 322.236-144.263 322.236-322.236 0-79.815-29.248-153.185-77.832-209.7l13.881-13.386h39.164l247.872-247.872-74.361-74.361-247.872 247.872v39.164l-13.386 13.881c-56.515-48.583-129.885-77.832-209.7-77.832-177.973 0-322.236 144.263-322.236 322.236s144.263 322.236 322.236 322.236M570.958 336.458c79.815 0 148.725 42.138 189.376 105.098-40.651 56.018-109.56 93.201-189.376 93.201s-148.725-37.181-189.376-93.201c40.651-62.959 109.56-105.098 189.376-105.098M570.958 782.629c-48.088 0-86.756-38.667-86.756-86.756s38.667-86.756 86.756-86.756 86.756 38.667 86.756 86.756-38.667 86.756-86.756 86.756z" />
<glyph unicode="&#xf017;" glyph-name="account-star" horiz-adv-x="1365" d="M841.166 342.222c-141.213 0-423.111-70.342-423.111-211.556v-105.778h846.222v105.778c0 141.213-281.898 211.556-423.111 211.556M841.166 447.999c116.884 0 211.556 94.671 211.556 211.556s-94.671 211.556-211.556 211.556-211.556-94.671-211.556-211.556 94.671-211.556 211.556-211.556M312.277 380.302l129.578-78.804-34.378 148.618 116.356 99.431-152.849 13.222-58.707 139.627-59.764-139.627-151.791-13.222 115.298-99.431-35.964-148.618 132.222 78.804z" />
<glyph unicode="&#xf019;" glyph-name="account-switch" horiz-adv-x="1365" d="M841.022 571.843c92.339 0 277.412-46.37 277.412-138.709v-99.076h-237.785v99.076c0 59.445-32.1 103.438-77.674 136.725l38.047 1.98M523.978 571.843c92.339 0 277.412-46.37 277.412-138.709v-99.076h-554.828v99.076c0 92.339 185.073 138.709 277.412 138.709M523.978 651.107c-65.786 0-118.893 53.107-118.893 118.893s53.107 118.893 118.893 118.893 118.893-53.107 118.893-118.893-53.107-118.893-118.893-118.893M841.022 651.107c-65.786 0-118.893 53.107-118.893 118.893s53.107 118.893 118.893 118.893 118.893-53.107 118.893-118.893-53.107-118.893-118.893-118.893M563.607 264.706v-89.168h237.785v89.168l128.801-128.801-128.801-128.801v89.168h-237.785v-89.168l-128.801 128.801 128.801 128.801z" />
<glyph unicode="&#xf026;" glyph-name="alert, warning" horiz-adv-x="1365" d="M729.285 331.042h-93.567v187.134h93.567M729.285 143.908h-93.567v93.567h93.567M167.881 3.556h1029.241l-514.619 888.889-514.619-888.889z" />
<glyph unicode="&#xf028;" glyph-name="alert-circle, error, failed" horiz-adv-x="1365" d="M726.589 403.911h-88.178v264.533h88.178M726.589 227.556h-88.178v88.178h88.178M682.5 888.889c-243.371 0-440.889-197.518-440.889-440.889s197.518-440.889 440.889-440.889 440.889 197.518 440.889 440.889-197.518 440.889-440.889 440.889z" />
<glyph unicode="&#xf029;" glyph-name="alert-octagon" horiz-adv-x="1365" d="M732.277 398.222h-99.556v298.667h99.556M682.5 184.177c-35.84 0-64.712 28.872-64.712 64.712s28.872 64.712 64.712 64.712c35.84 0 64.712-28.872 64.712-64.712s-28.872-64.712-64.712-64.712M868.171 895.999h-371.343l-262.328-262.328v-371.343l262.328-262.328h371.343l262.328 262.328v371.343l-262.328 262.328z" />
<glyph unicode="&#xf02c;" glyph-name="alphabetical" horiz-adv-x="1365" d="M341.167 504.889c62.578 0 113.778-51.2 113.778-113.778v-227.556h-227.556c-62.578 0-113.778 51.2-113.778 113.778v113.778c0 62.578 51.2 113.778 113.778 113.778h113.778M227.39 391.111v-113.778h113.778v113.778h-113.778M1137.612 391.111v-113.778h113.778v-113.778h-113.778c-62.578 0-113.778 51.2-113.778 113.778v113.778c0 62.578 51.2 113.778 113.778 113.778h113.778v-113.778h-113.778M682.501 732.445v-227.556h113.778c62.578 0 113.778-51.2 113.778-113.778v-113.778c0-62.578-51.2-113.778-113.778-113.778h-113.778c-62.578 0-113.778 51.2-113.778 113.778v455.111h113.778M682.501 277.334h113.778v113.778h-113.778v-113.778z" />
<glyph unicode="&#xf02d;" glyph-name="book" horiz-adv-x="951" d="M83.356 221.711q0 1.905 1.428 12.857t1.905 17.619q0.475 3.809-1.428 10.238t-1.428 9.285q0.953 5.238 3.809 10t7.857 11.191 7.857 11.191q10.953 18.095 21.428 43.572t14.285 43.572q1.428 4.762 0.238 14.285t-0.238 13.334q1.428 5.238 8.095 13.334t8.095 10.953q10 17.143 20 43.809t11.905 42.857q0.475 4.285-1.191 15.238t0.238 13.334q1.905 6.191 10.475 14.525t10.475 10.715q9.047 12.381 20.238 40.238t13.095 45.953q0.475 3.809-1.428 12.143t-0.953 12.619q0.953 3.809 4.285 8.572t8.572 10.953 8.095 10q3.809 5.715 7.857 14.525t7.143 16.666 7.619 17.143 9.285 15.238 12.619 11.191 17.143 5.475 22.619-2.619l-0.475-1.428q18.095 4.285 24.285 4.285h362.381q35.238 0 54.285-26.666t8.572-61.905l-130.475-431.428q-17.143-56.666-34.047-73.095t-61.191-16.428h-413.809q-12.857 0-18.095-7.143-5.238-7.619-0.475-20.475 11.428-33.334 68.572-33.334h439.524q13.809 0 26.666 7.381t16.666 19.762l142.857 470q3.334 10.475 2.381 27.143 18.095-7.143 28.095-20.475 19.047-27.143 8.572-61.428l-130.953-431.428q-9.047-30.475-36.428-51.191t-58.334-20.715h-439.524q-36.666 0-70.715 25.475t-47.381 62.619q-11.428 31.905-0.953 60.475zM312.879 515.043q-1.905-6.191 0.953-10.715t9.525-4.525h289.524q6.191 0 12.143 4.525t7.857 10.715l10 30.475q1.905 6.191-0.953 10.715t-9.525 4.525h-289.524q-6.191 0-12.143-4.525t-7.857-10.715zM352.403 636.948q-1.905-6.191 0.953-10.715t9.525-4.525h289.524q6.191 0 12.143 4.525t7.857 10.715l10 30.475q1.905 6.191-0.953 10.715t-9.525 4.525h-289.524q-6.191 0-12.143-4.525t-7.857-10.715z" />
<glyph unicode="&#xf03b;" glyph-name="apps" horiz-adv-x="1365" d="M894.055 24.888h211.556v211.556h-211.556M894.055 342.222h211.556v211.556h-211.556M576.722 659.555h211.556v211.556h-211.556M894.055 659.555h211.556v211.556h-211.556M576.722 342.222h211.556v211.556h-211.556M259.389 342.222h211.556v211.556h-211.556M259.389 24.888h211.556v211.556h-211.556M576.722 24.888h211.556v211.556h-211.556M259.389 659.555h211.556v211.556h-211.556v-211.556z" />
<glyph unicode="&#xf03d;" glyph-name="arrange-bring-forward" horiz-adv-x="1365" d="M241.61 888.888h617.244v-617.244h-617.244v617.244M1123.388 624.355v-617.244h-617.244v176.356h88.178v-88.178h440.889v440.889h-88.178v88.178h176.356z" />
<glyph unicode="&#xf03e;" glyph-name="arrange-bring-to-front" horiz-adv-x="1365" d="M241.611 888.889h396.8v-176.356h-88.178v88.178h-220.444v-220.444h88.178v-88.178h-176.356v396.8M1123.389 403.911v-396.8h-396.8v176.356h88.178v-88.178h220.444v220.444h-88.178v88.178h176.356M506.144 624.356h352.711v-352.711h-352.711v352.711z" />
<glyph unicode="&#xf03f;" glyph-name="arrange-send-backward" horiz-adv-x="1365" d="M241.611 888.888h617.244v-617.244h-617.244v617.244M1123.389 624.355v-617.244h-617.244v176.356h440.889v440.889h176.356M329.789 800.71v-440.889h440.889v440.889h-440.889z" />
<glyph unicode="&#xf040;" glyph-name="arrange-send-to-back" horiz-adv-x="1365" d="M241.611 888.889h396.8v-396.8h-396.8v396.8M550.233 800.711h-220.444v-220.444h220.444v220.444M1123.389 403.911v-396.8h-396.8v396.8h396.8M814.766 95.289h220.444v220.444h-220.444v-220.444M858.855 624.356v-132.267h-132.267v132.267h132.267M638.411 271.645h-132.267v132.267h132.267v-132.267z" />
<glyph unicode="&#xf041;" glyph-name="arrow-all" horiz-adv-x="1365" d="M726.381 491.881h219.404l-65.821 65.821 62.31 62.31 172.012-172.012-172.012-172.012-62.31 62.31 65.821 65.821h-219.404v-219.404l65.821 65.821 62.31-62.31-172.012-172.012-172.012 172.012 62.31 62.31 65.821-65.821v219.404h-219.404l65.821-65.821-62.31-62.31-172.012 172.012 172.012 172.012 62.31-62.31-65.821-65.821h219.404v219.404l-65.821-65.821-62.31 62.31 172.012 172.012 172.012-172.012-62.31-62.31-65.821 65.821v-219.404z" />
<glyph unicode="&#xf042;" glyph-name="arrow-bottom-left" horiz-adv-x="1365" d="M1112.722 791.563l-86.659 86.659-650.864-650.864v405.024h-122.921v-614.603h614.603v122.921h-405.024l650.864 650.864z" />
<glyph unicode="&#xf043;" glyph-name="arrow-bottom-right" horiz-adv-x="1365" d="M252.278 791.563l86.659 86.659 650.864-650.864v405.024h122.921v-614.603h-614.603v122.921h405.024l-650.864 650.864z" />
<glyph unicode="&#xf044;" glyph-name="arrow-compress-all" horiz-adv-x="1365" d="M1055.294 890.879l70.085-70.085-223.676-223.676h178.445v-99.412h-347.942v347.942h99.412v-178.445l223.676 223.676M1125.38 75.205l-70.085-70.085-223.676 223.676v-178.445h-99.412v347.942h347.942v-99.412h-178.445l223.676-223.676M309.705 890.879l223.676-223.676v178.445h99.412v-347.942h-347.942v99.412h178.445l-223.676 223.676 70.085 70.085M239.62 75.205l223.676 223.676h-178.445v99.412h347.942v-347.942h-99.412v178.445l-223.676-223.676-70.085 70.085z" />
<glyph unicode="&#xf045;" glyph-name="arrow-down" horiz-adv-x="1365" d="M625.611 898.56h113.778v-682.667l312.889 312.889 80.782-80.782-450.56-450.56-450.56 450.56 80.782 80.782 312.889-312.889v682.667z" />
<glyph unicode="&#xf04c;" glyph-name="arrow-expand-all" horiz-adv-x="1365" d="M558.056 393.742l70.187-70.187-224-224h178.704v-99.556h-348.444v348.444h99.556v-178.704l224 224M628.242 572.444l-70.187-70.187-224 224v-178.704h-99.556v348.444h348.444v-99.556h-178.704l224-224M806.945 393.742l224-224v178.704h99.556v-348.444h-348.444v99.556h178.704l-224 224 70.187 70.187M736.758 572.444l224 224h-178.704v99.556h348.444v-348.444h-99.556v178.704l-224-224-70.187 70.187z" />
<glyph unicode="&#xf04d;" glyph-name="arrow-left" horiz-adv-x="1365" d="M1133.060 504.889v-113.778h-682.667l312.889-312.889-80.782-80.782-450.56 450.56 450.56 450.56 80.782-80.782-312.889-312.889h682.667z" />
<glyph unicode="&#xf054;" glyph-name="arrow-right" horiz-adv-x="1365" d="M231.94 504.889v-113.778h682.667l-312.889-312.889 80.782-80.782 450.56 450.56-450.56 450.56-80.782-80.782 312.889-312.889h-682.667z" />
<glyph unicode="&#xf05b;" glyph-name="arrow-top-left" horiz-adv-x="1365" d="M1112.722 104.437l-86.659-86.659-650.864 650.864v-405.024h-122.921v614.603h614.603v-122.921h-405.024l650.864-650.864z" />
<glyph unicode="&#xf05c;" glyph-name="arrow-top-right" horiz-adv-x="1365" d="M252.278 104.437l650.864 650.864h-405.024v122.921h614.603v-614.603h-122.921v405.024l-650.864-650.864-86.659 86.659z" />
<glyph unicode="&#xf05d;" glyph-name="arrow-up" horiz-adv-x="1365" d="M739.389-2.56h-113.778v682.667l-312.889-312.889-80.782 80.782 450.56 450.56 450.56-450.56-80.782-80.782-312.889 312.889v-682.667z" />
<glyph unicode="&#xf064;" glyph-name="assistant" horiz-adv-x="1365" d="M974.056 885.333h-583.109c-45.818 0-83.303-37.485-83.303-83.303v-583.109c0-45.818 37.485-83.303 83.303-83.303h166.604l124.952-124.952 124.952 124.952h166.604c45.818 0 83.303 37.485 83.303 83.303v583.109c0 45.818-37.485 83.303-83.303 83.303M760.803 432.172l-78.303-171.602-78.303 171.602-171.602 78.303 171.602 78.303 78.303 171.602 78.303-171.602 171.602-78.303" />
<glyph unicode="&#xf066;" glyph-name="attachment" horiz-adv-x="1365" d="M426.5 135.112c-172.942 0-312.889 139.947-312.889 312.889s139.947 312.889 312.889 312.889h597.333c125.724 0 227.556-101.831 227.556-227.556s-101.831-227.556-227.556-227.556h-483.556c-78.507 0-142.222 63.716-142.222 142.222s63.716 142.222 142.222 142.222h426.667v-85.333h-426.667c-31.289 0-56.889-25.6-56.889-56.889s25.6-56.889 56.889-56.889h483.556c78.507 0 142.222 63.716 142.222 142.222s-63.716 142.222-142.222 142.222h-597.333c-125.724 0-227.556-101.831-227.556-227.556s101.831-227.556 227.556-227.556h540.444v-85.333h-540.444z" />
<glyph unicode="&#xf068;" glyph-name="auto-fix" horiz-adv-x="1365" d="M517.694 737.973l-104.307-58.413 58.413 104.307-58.413 104.307 104.307-58.413 104.307 58.413-58.413-104.307 58.413-104.307-104.307 58.413M1018.37 329.090l104.307 58.413-58.413-104.307 58.413-104.307-104.307 58.413-104.307-58.413 58.413 104.307-58.413 104.307 104.307-58.413M1122.678 888.178l-58.413-104.307 58.413-104.307-104.307 58.413-104.307-58.413 58.413 104.307-58.413 104.307 104.307-58.413 104.307 58.413M761.355 438.406l101.804 101.804-88.454 88.454-101.804-101.804 88.454-88.454M804.33 667.463l97.63-97.63c16.272-15.439 16.272-42.557 0-58.828l-486.908-486.908c-16.272-16.272-43.392-16.272-58.828 0l-97.63 97.63c-16.272 15.439-16.272 42.557 0 58.828l486.908 486.908c16.272 16.272 43.392 16.272 58.828 0z" />
<glyph unicode="&#xf069;" glyph-name="auto-upload" horiz-adv-x="1365" d="M265.642 454.131l70.498 223.754 70.498-223.754M274.837 800.491l-196.168-551.724h116.475l42.912 122.606h196.168l42.912-122.606h116.475l-196.168 551.724M612.002 3.556h674.33v122.606h-674.33M795.909 248.767h306.513v306.513h183.908l-337.165 337.165-337.165-337.165h183.908v-306.513z" />
<glyph unicode="&#xf06a;" glyph-name="autorenew" horiz-adv-x="1365" d="M682.5 684.608v-118.305l157.74 157.74-157.74 157.74v-118.305c-174.301 0-315.475-141.176-315.475-315.475 0-61.914 18.141-119.487 48.9-167.99l57.576 57.576c-17.746 32.73-27.606 70.984-27.606 110.418 0 130.528 106.081 236.608 236.608 236.608M949.079 615.99l-57.576-57.576c17.351-33.123 27.606-70.984 27.606-110.418 0-130.528-106.081-236.608-236.608-236.608v118.305l-157.74-157.74 157.74-157.74v118.305c174.301 0 315.475 141.176 315.475 315.475 0 61.914-18.141 119.487-48.9 167.99z" />
<glyph unicode="&#xf06b;" glyph-name="av-timer" horiz-adv-x="1365" d="M632.723 199.113c0-27.377 22.4-49.777 49.777-49.777s49.777 22.4 49.777 49.777-22.4 49.777-49.777 49.777-49.777-22.4-49.777-49.777M632.723 896.001v-199.112h99.556v95.573c168.747-24.392 298.667-168.747 298.667-344.463 0-192.64-155.804-348.444-348.444-348.444s-348.444 155.804-348.444 348.444c0 83.627 29.368 160.284 78.648 220.018l269.796-269.796 70.187 70.187-338.488 338.488v-0.996c-109.013-81.636-179.698-211.058-179.698-357.903 0-247.396 200.604-448 448-448s448 200.604 448 448-200.604 448-448 448M981.167 448.001c0 27.377-22.4 49.777-49.777 49.777s-49.777-22.4-49.777-49.777 22.4-49.777 49.777-49.777 49.777 22.4 49.777 49.777M383.832 448.001c0-27.377 22.4-49.777 49.777-49.777s49.777 22.4 49.777 49.777-22.4 49.777-49.777 49.777-49.777-22.4-49.777-49.777z" />
<glyph unicode="&#xf06d;" glyph-name="backburger" horiz-adv-x="1365" d="M305.691 386.127l247.494-247.494-86.622-87.86-397.227 397.227 397.227 397.227 86.622-87.86-247.494-247.494h989.973v-123.747h-989.973M1295.665 819.241v-123.747h-618.733v123.747h618.733M1295.665 200.507v-123.747h-618.733v123.747h618.733z" />
<glyph unicode="&#xf06f;" glyph-name="backup-restore" horiz-adv-x="1365" d="M757.167 895.999c-247.396 0-448-200.604-448-448h-149.333l199.112-199.112 199.112 199.112h-149.333c0 192.64 155.804 348.444 348.444 348.444s348.444-155.804 348.444-348.444-155.804-348.444-348.444-348.444c-74.667 0-144.853 24.888-202.097 64.712l-71.68-71.68c76.657-57.743 171.236-92.587 273.777-92.587 247.396 0 448 200.604 448 448s-200.604 448-448 448M856.722 447.999c0 54.756-44.8 99.556-99.556 99.556s-99.556-44.8-99.556-99.556 44.8-99.556 99.556-99.556 99.556 44.8 99.556 99.556z" />
<glyph unicode="&#xf0a5;" glyph-name="binoculars" horiz-adv-x="1365" d="M632.724 746.667h99.556v-348.444h-99.556v348.444M533.168 49.778c0-27.378-22.4-49.778-49.776-49.778h-149.333c-27.378 0-49.776 22.4-49.776 49.778v248.888l99.556 448h199.112v-348.444c0-27.376-22.4-49.778-49.778-49.778v-298.667M582.945 796.444h-149.333v99.556h149.333v-99.556M831.833 49.778v298.667c-27.376 0-49.778 22.4-49.778 49.778v348.444h199.112l99.556-448v-248.888c0-27.376-22.4-49.776-49.778-49.776h-149.333c-27.376 0-49.776 22.4-49.776 49.776M782.056 796.444v99.556h149.333v-99.556h-149.333z" />
<glyph unicode="&#xf0ad;" glyph-name="block-helper" horiz-adv-x="1365" d="M682.5 874.667c235.733 0 426.667-190.933 426.667-426.667s-190.933-426.667-426.667-426.667-426.667 190.933-426.667 426.667 190.933 426.667 426.667 426.667M682.5 803.554c-196.267 0-355.554-159.287-355.554-355.554 0-85.333 30.22-163.554 80.353-225.067l500.267 500.267c-61.513 50.133-139.733 80.353-225.067 80.353M682.5 92.446c196.267 0 355.554 159.287 355.554 355.554 0 85.333-30.22 163.554-80.353 225.067l-500.267-500.267c61.513-50.133 139.733-80.353 225.067-80.353z" />
<glyph unicode="&#xf0c0;" glyph-name="bookmark" horiz-adv-x="1365" d="M931.389 896h-497.776c-54.756 0-99.556-44.8-99.556-99.556v-796.444l348.444 149.333 348.444-149.333v796.444c0 55.253-44.8 99.556-99.556 99.556z" />
<glyph unicode="&#xf0c1;" glyph-name="bookmark-check" horiz-adv-x="1365" d="M931.388 896c54.756 0 99.556-44.8 99.556-99.556v-796.444l-348.444 149.333-348.444-149.333v796.444c0 55.253 44.8 99.556 99.556 99.556h497.776M632.724 348.445l311.112 310.613-70.187 70.684-240.924-240.924-128.924 128.924-70.187-70.187 199.112-199.112z" />
<glyph unicode="&#xf0c5;" glyph-name="bookmark-plus" horiz-adv-x="1365" d="M931.388 896c54.756 0 99.556-44.8 99.556-99.556v-796.444l-348.444 149.333-348.444-149.333v796.444c0 55.253 44.8 99.556 99.556 99.556h497.776M632.722 696.889v-99.556h-99.556v-99.556h99.556v-99.556h99.556v99.556h99.556v99.556h-99.556v99.556h-99.556z" />
<glyph unicode="&#xf0c6;" glyph-name="bookmark-remove" horiz-adv-x="1365" d="M931.388 896c54.756 0 99.556-44.8 99.556-99.556v-796.444l-348.444 149.333-348.444-149.333v796.444c0 55.253 44.8 99.556 99.556 99.556h497.776M491.851 618.24l120.464-120.462-120.464-119.964 70.684-70.684 119.964 120.462 119.964-120.462 70.684 70.684-120.462 119.964 120.462 120.464-70.684 70.187-119.964-119.964-119.964 119.964-70.684-70.187z" />
<glyph unicode="&#xf0c9;" glyph-name="border-color" horiz-adv-x="1365" d="M1116.173 682.375c20.727 20.727 20.727 55.272 0 74.936l-124.362 124.362c-19.664 20.727-54.207 20.727-74.936 0l-104.166-104.166 199.298-199.298M958.86 525.062l-199.298 199.298-531.462-531.462v-199.298h199.298l531.462 531.462z" />
<glyph unicode="&#xf0dc;" glyph-name="sort, unsorted" horiz-adv-x="585" d="M585.142 338.286c0-9.714-4-18.857-10.857-25.714l-256-256c-6.857-6.857-16-10.857-25.714-10.857s-18.857 4-25.714 10.857l-256 256c-6.857 6.857-10.857 16-10.857 25.714 0 20 16.571 36.571 36.571 36.571h512c20 0 36.571-16.571 36.571-36.571zM585.142 557.714c0-20-16.571-36.571-36.571-36.571h-512c-20 0-36.571 16.571-36.571 36.571 0 9.714 4 18.857 10.857 25.714l256 256c6.857 6.857 16 10.857 25.714 10.857s18.857-4 25.714-10.857l256-256c6.857-6.857 10.857-16 10.857-25.714z" />
<glyph unicode="&#xf0e6;" glyph-name="brush" horiz-adv-x="1365" d="M1138.824 812.66l-66.755 66.755c-18.433 19.429-50.813 19.429-70.241 0l-446.36-446.36 136.996-136.996 446.36 446.36c19.429 19.429 19.429 51.81 0 70.241M455.831 345.876c-82.696 0-149.451-66.755-149.451-149.451 0-65.26-57.787-99.634-99.634-99.634 45.832-60.776 124.542-99.634 199.268-99.634 110.096 0 199.268 89.173 199.268 199.268 0 82.696-66.755 149.451-149.451 149.451z" />
<glyph unicode="&#xf0e7;" glyph-name="bug" horiz-adv-x="1365" d="M782.055 448.001h-199.112v99.556h199.112M782.055 248.89h-199.112v99.556h199.112M1080.723 647.113h-139.876c-22.4 38.827-53.262 72.176-90.596 97.564l81.136 81.136-70.187 70.187-108.017-108.017c-22.896 5.476-45.796 8.462-70.684 8.462s-47.787-2.987-70.187-8.462l-108.516 108.017-70.187-70.187 80.64-81.136c-36.836-25.387-67.696-58.736-90.096-97.564h-139.876v-99.556h104.036c-2.488-16.427-4.48-32.853-4.48-49.776v-49.776h-99.556v-99.556h99.556v-49.776c0-16.924 1.992-33.352 4.48-49.776h-104.036v-99.556h139.876c51.768-89.102 147.84-149.333 258.347-149.333s206.577 60.232 258.347 149.333h139.876v99.556h-104.036c2.488 16.427 4.48 32.853 4.48 49.776v49.776h99.556v99.556h-99.556v49.776c0 16.924-1.992 33.352-4.48 49.776h104.036v99.556z" />
<glyph unicode="&#xf0ea;" glyph-name="bullhorn" horiz-adv-x="1365" d="M938.499 419.556v-227.556c0-31.289-25.6-56.889-56.889-56.889-9.671 0-18.773 0-53.476 28.444-35.271 28.444-95.004 85.333-156.444 113.778-56.889 26.169-115.484 28.444-173.511 28.444l68.836-188.871 1.707-10.24c0-15.929-12.516-28.444-28.444-28.444h-113.778c-12.516 0-23.324 7.964-26.738 19.342l-76.231 208.213h-10.809c-31.289 0-56.889 25.6-56.889 56.889-62.578 0-113.778 51.2-113.778 113.778s51.2 113.778 113.778 113.778c0 31.289 25.6 56.889 56.889 56.889h170.667c63.147 0 126.293 0 188.302 28.444 61.44 28.444 121.173 85.333 156.444 113.778 34.702 28.444 43.804 28.444 53.476 28.444 31.289 0 56.889-25.6 56.889-56.889v-227.556c31.289 0 56.889-25.6 56.889-56.889s-25.6-56.889-56.889-56.889M1222.944 476.445c0-78.507-31.858-149.618-83.058-201.387l-80.782 80.782c30.72 30.72 50.062 73.387 50.062 120.604s-19.342 89.884-50.062 120.604l80.782 80.782c51.2-51.769 83.058-122.88 83.058-201.387z" />
<glyph unicode="&#xf0ec;" glyph-name="cached" horiz-adv-x="1365" d="M1052.722 659.556l-211.556-211.556h158.667c0-175.062-142.271-317.333-317.333-317.333-52.889 0-104.191 13.222-148.089 37.022l-77.218-77.218c65.053-41.253 142.271-65.582 225.307-65.582 233.769 0 423.111 189.342 423.111 423.111h158.667M365.166 448c0 175.062 142.271 317.333 317.333 317.333 52.889 0 104.191-13.222 148.089-37.022l77.218 77.218c-65.053 41.253-142.271 65.582-225.307 65.582-233.769 0-423.111-189.342-423.111-423.111h-158.667l211.556-211.556 211.556 211.556" />
<glyph unicode="&#xf0ef;" glyph-name="cake-variant" horiz-adv-x="1365" d="M682.5 645.174c43.773 0 78.87 35.492 78.87 78.87 0 14.986-3.943 28.786-11.434 40.62l-67.433 117.12-67.433-117.12c-7.491-11.829-11.434-25.632-11.434-40.62 0-43.378 35.492-78.87 78.87-78.87M863.897 250.826l-42.193 42.588-42.588-42.588c-51.264-50.869-141.176-51.264-192.836 0l-41.799 42.588-43.378-42.588c-25.632-25.237-59.939-39.435-96.221-39.435-28.786 0-55.206 9.070-77.29 24.055v-181.792c0-21.689 17.746-39.435 39.435-39.435h630.952c21.689 0 39.435 17.746 39.435 39.435v181.792c-22.084-14.986-48.505-24.055-77.29-24.055-36.282 0-70.589 14.198-96.221 39.435M919.108 526.869h-197.174v78.87h-78.87v-78.87h-197.174c-65.462 0-118.305-52.843-118.305-118.305v-60.729c0-42.588 34.702-77.29 77.29-77.29 21.294 0 41.013 7.886 54.419 22.479l85.177 83.997 83.208-83.997c29.18-29.18 80.053-29.18 109.234 0l83.602 83.997 84.784-83.997c13.803-14.593 33.518-22.479 54.419-22.479 42.588 0 77.685 34.702 77.685 77.29v60.729c0 65.462-52.843 118.305-118.305 118.305z" />
<glyph unicode="&#xf0f0;" glyph-name="calculator" horiz-adv-x="1365" d="M462.056 888.889h440.889c48.498 0 88.178-39.68 88.178-88.178v-705.422c0-48.498-39.68-88.178-88.178-88.178h-440.889c-48.498 0-88.178 39.68-88.178 88.178v705.422c0 48.498 39.68 88.178 88.178 88.178M462.056 800.711v-176.356h440.889v176.356h-440.889M462.056 536.178v-88.178h88.178v88.178h-88.178M638.412 536.178v-88.178h88.178v88.178h-88.178M814.767 536.178v-88.178h88.178v88.178h-88.178M462.056 359.823v-88.178h88.178v88.178h-88.178M638.412 359.823v-88.178h88.178v88.178h-88.178M814.767 359.823v-88.178h88.178v88.178h-88.178M462.056 183.467v-88.178h88.178v88.178h-88.178M638.412 183.467v-88.178h88.178v88.178h-88.178M814.767 183.467v-88.178h88.178v88.178h-88.178z" />
<glyph unicode="&#xf0f1;" glyph-name="calendar" horiz-adv-x="1365" d="M991.123 95.289h-617.244v484.978h617.244M858.856 888.889v-88.178h-352.711v88.178h-88.178v-88.178h-44.089c-48.939 0-88.178-39.239-88.178-88.178v-617.244c0-48.498 39.68-88.178 88.178-88.178h617.244c48.498 0 88.178 39.68 88.178 88.178v617.244c0 48.939-39.68 88.178-88.178 88.178h-44.089v88.178M902.945 403.911h-220.444v-220.444h220.444v220.444z" />
<glyph unicode="&#xf0f2;" glyph-name="calendar-blank" horiz-adv-x="1365" d="M991.123 95.289h-617.244v484.978h617.244M858.856 888.889v-88.178h-352.711v88.178h-88.178v-88.178h-44.089c-48.939 0-88.178-39.239-88.178-88.178v-617.244c0-48.498 39.68-88.178 88.178-88.178h617.244c48.498 0 88.178 39.68 88.178 88.178v617.244c0 48.939-39.68 88.178-88.178 88.178h-44.089v88.178" />
<glyph unicode="&#xf0f3;" glyph-name="calendar-check" horiz-adv-x="1365" d="M991.123 95.289h-617.244v484.978h617.244M991.123 800.711h-44.089v88.178h-88.178v-88.178h-352.711v88.178h-88.178v-88.178h-44.089c-48.939 0-88.178-39.68-88.178-88.178v-617.244c0-48.498 39.68-88.178 88.178-88.178h617.244c48.498 0 88.178 39.68 88.178 88.178v617.244c0 48.498-39.68 88.178-88.178 88.178M882.223 445.355l-46.734 46.734-215.154-215.154-93.468 93.468-46.734-46.734 140.203-140.203 261.888 261.888z" />
<glyph unicode="&#xf0f4;" glyph-name="calendar-clock" horiz-adv-x="1365" d="M761.37 408.565h59.15v-111.203l96.221-55.601-29.575-51.264-125.796 72.558v145.512M919.106 605.739h-552.082v-433.778h184.159c-16.956 35.887-26.422 76.108-26.422 118.305 0 152.612 123.43 276.039 276.039 276.039 42.193 0 82.418-9.465 118.305-26.422v65.856M367.027 93.092c-43.773 0-78.87 35.492-78.87 78.87v552.082c0 43.773 35.097 78.87 78.87 78.87h39.435v78.87h78.87v-78.87h315.473v78.87h78.87v-78.87h39.435c43.378 0 78.87-35.492 78.87-78.87v-240.55c48.9-49.688 78.87-117.91 78.87-193.228 0-152.612-123.43-276.039-276.039-276.039-75.321 0-143.542 29.97-193.228 78.87h-240.55M800.805 481.518c-105.686 0-191.257-85.571-191.257-191.257s85.571-191.257 191.257-191.257c105.686 0 191.257 85.571 191.257 191.257s-85.571 191.257-191.257 191.257z" />
<glyph unicode="&#xf0f7;" glyph-name="calendar-plus" horiz-adv-x="1365" d="M991.122 95.289v529.067h-617.244v-529.067h617.244M858.855 888.889h88.178v-88.178h44.089c48.498 0 88.178-39.68 88.178-88.178v-617.244c0-48.498-39.68-88.178-88.178-88.178h-617.244c-48.939 0-88.178 39.68-88.178 88.178v617.244c0 48.939 39.239 88.178 88.178 88.178h44.089v88.178h88.178v-88.178h352.711v88.178M638.411 536.178h88.178v-132.267h132.267v-88.178h-132.267v-132.267h-88.178v132.267h-132.267v88.178h132.267v132.267z" />
<glyph unicode="&#xf0f8;" glyph-name="calendar-remove" horiz-adv-x="1365" d="M991.123 95.289h-617.244v484.978h617.244M991.123 800.711h-44.089v88.178h-88.178v-88.178h-352.711v88.178h-88.178v-88.178h-44.089c-48.939 0-88.178-39.68-88.178-88.178v-617.244c0-48.498 39.68-88.178 88.178-88.178h617.244c48.498 0 88.178 39.68 88.178 88.178v617.244c0 48.498-39.68 88.178-88.178 88.178M563.902 183.467l107.577 107.577 107.577-107.577 46.734 46.734-107.577 107.577 107.577 107.577-46.734 46.734-107.577-107.577-107.577 107.577-46.734-46.734 107.577-107.577-107.577-107.577 46.734-46.734z" />
<glyph unicode="&#xf0f9;" glyph-name="calendar-text" horiz-adv-x="1365" d="M770.678 315.734h-308.622v-88.178h308.622M991.123 95.289h-617.244v484.978h617.244M991.123 800.711h-44.089v88.178h-88.178v-88.178h-352.711v88.178h-88.178v-88.178h-44.089c-48.939 0-88.178-39.68-88.178-88.178v-617.244c0-48.498 39.68-88.178 88.178-88.178h617.244c48.498 0 88.178 39.68 88.178 88.178v617.244c0 48.498-39.68 88.178-88.178 88.178M902.945 492.089h-440.889v-88.178h440.889v88.178z" />
<glyph unicode="&#xf0fb;" glyph-name="call-made" horiz-adv-x="1365" d="M540.277 874.666v-113.778h374.898l-659.342-659.342 80.213-80.213 659.342 659.342v-374.898h113.778v568.889" />
<glyph unicode="&#xf0fd;" glyph-name="call-missed" horiz-adv-x="1365" d="M1114.287 744.106l-431.787-431.787-318.009 318.009h261.12v113.778h-455.111v-455.111h113.778v261.12l398.222-398.222 512 512" />
<glyph unicode="&#xf0fe;" glyph-name="call-received" horiz-adv-x="1365" d="M1109.167 794.454l-80.213 80.213-659.342-659.342v374.898h-113.778v-568.889h568.889v113.778h-374.898" />
<glyph unicode="&#xf100;" glyph-name="camcorder" horiz-adv-x="1365" d="M945.612 485.334v161.778c0 25.423-20.8 46.223-46.223 46.223h-554.667c-25.423 0-46.223-20.8-46.223-46.223v-462.223c0-25.423 20.8-46.223 46.223-46.223h554.667c25.423 0 46.223 20.8 46.223 46.223v161.778l184.89-184.89v508.444l-184.89-184.89z" />
<glyph unicode="&#xf103;" glyph-name="camcorder-off" horiz-adv-x="1365" d="M297.47 892.445l-59.415-59.415 127.719-127.719h-34.152c-25.73 0-46.784-21.052-46.784-46.784v-467.837c0-25.73 21.052-46.784 46.784-46.784h561.404c9.356 0 18.245 3.744 25.263 8.422l149.241-148.772 59.415 59.415M1126.944 681.919l-187.134-187.134v163.744c0 25.73-21.052 46.784-46.784 46.784h-289.122l523.041-523.041v499.648z" />
<glyph unicode="&#xf104;" glyph-name="camera" horiz-adv-x="1365" d="M284.277 796.445h149.333l99.556 99.556h298.667l99.556-99.556h149.333c54.756 0 99.556-44.8 99.556-99.556v-597.333c0-54.756-44.8-99.556-99.556-99.556h-796.444c-54.756 0-99.556 44.8-99.556 99.556v597.333c0 54.756 44.8 99.556 99.556 99.556M682.5 647.113c-137.387 0-248.888-111.503-248.888-248.888s111.503-248.888 248.888-248.888 248.888 111.503 248.888 248.888-111.503 248.888-248.888 248.888M682.5 547.557c82.632 0 149.333-66.703 149.333-149.333s-66.703-149.333-149.333-149.333-149.333 66.703-149.333 149.333 66.703 149.333 149.333 149.333z" />
<glyph unicode="&#xf10d;" glyph-name="camera-timer" horiz-adv-x="1365" d="M388.445 662.504c-16.243 16.243-16.243 42.901 0 59.142s42.483 16.243 58.728 0l294.469-235.743c32.488-32.488 32.488-85.382 0-117.871s-85.382-32.488-117.871 0l-11.664 14.576-223.663 279.893M682.501 93.97c184.097 0 333.206 149.11 333.206 333.206 0 92.049-37.485 175.35-97.464 235.743l58.728 58.728c75.389-75.389 122.036-179.516 122.036-294.469 0-229.912-186.597-416.509-416.509-416.509s-416.509 186.597-416.509 416.509h83.303c0-184.097 149.11-333.206 333.206-333.206M682.501 885.334c45.817 0 83.303-37.485 83.303-83.303s-37.485-83.303-83.303-83.303-83.303 37.485-83.303 83.303 37.485 83.303 83.303 83.303z" />
<glyph unicode="&#xf117;" glyph-name="cash" horiz-adv-x="1365" d="M170.5 789.333h1024v-682.667h-1024v682.667M682.5 618.666c94.436 0 170.667-76.231 170.667-170.667s-76.231-170.667-170.667-170.667-170.667 76.231-170.667 170.667 76.231 170.667 170.667 170.667M398.055 675.555c0-62.578-51.2-113.778-113.778-113.778v-227.556c62.578 0 113.778-51.2 113.778-113.778h568.889c0 62.578 51.2 113.778 113.778 113.778v227.556c-62.578 0-113.778 51.2-113.778 113.778h-568.889z" />
<glyph unicode="&#xf118;" glyph-name="cash-100" horiz-adv-x="1365" d="M113.611 874.666h1137.778v-853.333h-1137.778v853.333M1137.611 135.11v625.778h-910.222v-625.778h910.222M966.944 703.999c0-62.578 51.2-113.778 113.778-113.778v-284.444c-62.578 0-113.778-51.2-113.778-113.778h-568.889c0 62.578-51.2 113.778-113.778 113.778v284.444c62.578 0 113.778 51.2 113.778 113.778h568.889M966.944 419.554v56.889c0 62.578-38.116 113.778-85.333 113.778s-85.333-51.2-85.333-113.778v-56.889c0-62.578 38.116-113.778 85.333-113.778s85.333 51.2 85.333 113.778M881.611 533.332c15.929 0 28.444-12.516 28.444-28.444v-113.778c0-15.929-12.516-28.444-28.444-28.444s-28.444 12.516-28.444 28.444v113.778c0 15.929 12.516 28.444 28.444 28.444M739.389 419.554v56.889c0 62.578-38.116 113.778-85.333 113.778s-85.333-51.2-85.333-113.778v-56.889c0-62.578 38.116-113.778 85.333-113.778s85.333 51.2 85.333 113.778M654.055 533.332c15.929 0 28.444-12.516 28.444-28.444v-113.778c0-15.929-12.516-28.444-28.444-28.444s-28.444 12.516-28.444 28.444v113.778c0 15.929 12.516 28.444 28.444 28.444M454.944 305.777h56.889v284.444h-56.889l-56.889-28.444v-56.889l56.889 28.444v-227.556z" />
<glyph unicode="&#xf11a;" glyph-name="cash-usd" horiz-adv-x="1365" d="M1105.611 130.667h-846.222v634.667h846.222M1105.611 871.111h-846.222c-58.707 0-105.778-47.071-105.778-105.778v-634.667c0-58.178 47.6-105.778 105.778-105.778h846.222c58.178 0 105.778 47.6 105.778 105.778v634.667c0 58.707-47.6 105.778-105.778 105.778M629.611 183.556h105.778v52.889h52.889c29.089 0 52.889 23.8 52.889 52.889v158.667c0 29.089-23.8 52.889-52.889 52.889h-158.667v52.889h211.556v105.778h-105.778v52.889h-105.778v-52.889h-52.889c-29.089 0-52.889-23.8-52.889-52.889v-158.667c0-29.089 23.8-52.889 52.889-52.889h158.667v-52.889h-211.556v-105.778h105.778v-52.889z" />
<glyph unicode="&#xf11f;" glyph-name="cellphone" horiz-adv-x="1365" d="M879.672 171.961h-394.343v552.082h394.343M879.672 881.778h-394.343c-43.773 0-78.87-35.097-78.87-78.87v-709.817c0-43.378 35.492-78.87 78.87-78.87h394.343c43.378 0 78.87 35.492 78.87 78.87v709.817c0 43.773-35.492 78.87-78.87 78.87z" />
<glyph unicode="&#xf120;" glyph-name="cellphone-android, mobile" horiz-adv-x="1365" d="M889.529 211.393h-414.063v552.082h414.063M761.37 93.092h-157.74v39.435h157.74M840.24 881.778h-315.474c-65.462 0-118.305-52.843-118.305-118.305v-630.952c0-65.462 52.843-118.305 118.305-118.305h315.474c65.462 0 118.305 52.843 118.305 118.305v630.952c0 65.462-52.843 118.305-118.305 118.305z" />
<glyph unicode="&#xf121;" glyph-name="cellphone-basic" horiz-adv-x="1365" d="M792.723 888.89c-24.249 0-44.089-19.84-44.089-44.089v-132.267h-176.356c-48.939 0-88.178-39.239-88.178-88.178v-529.067c0-48.939 39.239-88.178 88.178-88.178h220.444c48.939 0 88.178 39.239 88.178 88.178v529.067c0 32.626-17.636 60.843-44.089 75.833v144.612c0 24.249-19.84 44.089-44.089 44.089M572.279 624.357h220.444v-220.444h-220.444v220.444M572.279 315.735h44.089v-44.089h-44.089v44.089M660.457 315.735h44.089v-44.089h-44.089v44.089M748.634 315.735h44.089v-44.089h-44.089v44.089M572.279 227.557h44.089v-44.089h-44.089v44.089M660.457 227.557h44.089v-44.089h-44.089v44.089M748.634 227.557h44.089v-44.089h-44.089v44.089M572.279 139.379h44.089v-44.089h-44.089v44.089M660.457 139.379h44.089v-44.089h-44.089v44.089M748.634 139.379h44.089v-44.089h-44.089v44.089z" />
<glyph unicode="&#xf122;" glyph-name="cellphone-dock" horiz-adv-x="1365" d="M840.239 329.695h-315.473v394.343h315.473M840.239 881.777h-315.473c-43.773 0-78.87-35.097-78.87-78.87v-552.082c0-43.378 35.492-78.87 78.87-78.87h315.473c43.378 0 78.87 35.492 78.87 78.87v552.082c0 43.773-35.492 78.87-78.87 78.87M524.761 14.222h315.473v78.87h-315.473v-78.87z" />
<glyph unicode="&#xf123;" glyph-name="cellphone-iphone" horiz-adv-x="1365" d="M859.953 211.396h-354.908v552.080h354.908M682.499 53.656c-32.73 0-59.149 26.422-59.149 59.149s26.422 59.149 59.149 59.149 59.149-26.422 59.149-59.149-26.422-59.149-59.149-59.149M840.238 881.777h-315.473c-54.418 0-98.584-44.168-98.584-98.584v-670.381c0-54.418 44.168-98.584 98.584-98.584h315.473c54.418 0 98.584 44.168 98.584 98.584v670.381c0 54.418-44.168 98.584-98.584 98.584z" />
<glyph unicode="&#xf124;" glyph-name="cellphone-link" horiz-adv-x="1365" d="M1091.389 243.555h-163.556v286.222h163.556M1132.277 611.555h-245.333c-22.489 0-40.889-18.4-40.889-40.889v-408.889c0-22.489 18.4-40.889 40.889-40.889h245.333c22.489 0 40.889 18.4 40.889 40.889v408.889c0 22.489-18.4 40.889-40.889 40.889M355.389 693.333h736v81.778h-736c-44.978 0-81.778-36.8-81.778-81.778v-449.778h-81.778v-122.667h572.444v122.667h-408.889v449.778z" />
<glyph unicode="&#xf125;" glyph-name="cellphone-link-off" horiz-adv-x="1365" d="M1138.228 613.721h-248.578c-22.787 0-41.429-18.645-41.429-41.429v-173.176l82.859-82.859v214.608h165.721v-290.010h-90.318l124.292-124.292h7.457c22.787 0 41.429 18.645 41.429 41.429v414.299c0 22.787-18.645 41.429-41.429 41.429M351.059 685.394l444.543-444.543h-444.543v444.543M264.885 876.8l-52.615-52.615 75.403-75.403c-12.013-14.087-19.473-31.486-19.473-52.2v-455.728h-82.859v-124.292h734.555l97.359-97.359 52.615 52.615-804.986 804.986M1096.799 696.579v82.859h-628.908l82.859-82.859h546.046z" />
<glyph unicode="&#xf129;" glyph-name="chart-arc" horiz-adv-x="1365" d="M890.571 69.689l-100.053 173.227c48.782 35.84 82.632 91.592 89.6 155.307h200.604c-8.464-137.387-82.133-256.853-190.152-328.533M732.276 695.396v200.604c214.044-12.942 385.28-184.176 398.224-398.222h-200.604c-11.448 104.036-93.582 186.168-197.616 197.616M433.611 423.112c0-31.858 6.472-62.224 18.916-89.6l-173.227-100.053c-28.872 57.244-44.8 121.458-44.8 189.653 0 225.493 176.213 409.672 398.224 423.112v-200.604c-112-12.444-199.112-107.024-199.112-222.507M657.611 0c-147.84 0-277.76 74.667-353.424 190.152l173.227 100.053c40.818-55.253 105.528-91.093 180.196-91.093 31.856 0 62.222 6.472 89.6 18.916l100.053-173.227c-57.244-28.872-121.456-44.8-189.653-44.8z" />
<glyph unicode="&#xf12a;" glyph-name="chart-areaspline" horiz-adv-x="1365" d="M936.136 287.209l211.75 366.258v-637.113h-930.769v837.694h93.078v-583.592l255.961 443.978 302.5-175.916 197.323 341.128 80.511-46.539-243.397-421.172-302.967 174.519-275.507-477.019h105.178l204.304 351.831 302.036-174.054z" />
<glyph unicode="&#xf12b;" glyph-name="chart-bar" horiz-adv-x="1365" d="M1144.722 32h-924.445v832h92.445v-739.555h92.445v416h184.89v-416h92.445v600.89h184.89v-600.89h92.445v231.11h184.89v-323.555z" />
<glyph unicode="&#xf12c;" glyph-name="chart-histogram" horiz-adv-x="1365" d="M266.499 864.001h92.445v-462.223h184.89v277.334h184.89v-184.89h184.89v-184.89h184.89v-277.334h-832v832z" />
<glyph unicode="&#xf12d;" glyph-name="chart-line" horiz-adv-x="1365" d="M867.39 458.169l195.981 338.81 79.965-46.221-241.741-418.31-300.906 173.334-220.48-381.334h764.515v-92.445h-924.445v832h92.445v-672.070l254.221 440.96 300.445-174.72z" />
<glyph unicode="&#xf12e;" glyph-name="chart-pie" horiz-adv-x="1365" d="M1098.5 494.222h-369.779v369.779c204.302 0 369.779-165.475 369.779-369.779M1006.055 401.779c0-128.499-65.635-241.741-165.014-308.302l-177.955 308.302h342.97M636.279 32.001c-128.499 0-241.742 65.635-308.302 165.014l299.981 173.334 172.87-299.981c-48.995-24.499-105.386-38.365-164.55-38.365M266.5 401.779c0 204.301 165.475 369.778 369.779 369.778v-342.97l-331.414-191.36c-24.498 48.995-38.365 105.386-38.365 164.55z" />
<glyph unicode="&#xf12f;" glyph-name="check, success" horiz-adv-x="1365" d="M1180.278 749.228l-682.667-682.667-312.889 312.889 80.213 80.213 232.676-232.107 602.453 601.884 80.213-80.213z" />
<glyph unicode="&#xf130;" glyph-name="check-all" horiz-adv-x="1365" d="M76.606 389.625l291.35-291.35 73.489 74.010-290.829 290.829M1214.383 797.724l-551.428-551.949-216.819 217.34-74.531-73.489 291.35-291.35 625.439 625.439M993.395 723.714l-73.489 74.010-330.961-330.961 74.010-73.489 330.44 330.44z" />
<glyph unicode="&#xf131;" glyph-name="checkbox-blank" horiz-adv-x="1365" d="M1030.944 896h-696.888c-55.253 0-99.556-44.303-99.556-99.556v-696.888c0-54.756 44.8-99.556 99.556-99.556h696.888c54.756 0 99.556 44.8 99.556 99.556v696.888c0 55.253-44.8 99.556-99.556 99.556z" />
<glyph unicode="&#xf134;" glyph-name="checkbox-blank-outline" horiz-adv-x="1365" d="M1030.944 896h-696.888c-55.253 0-99.556-44.302-99.556-99.556v-696.888c0-54.756 44.8-99.556 99.556-99.556h696.888c54.756 0 99.556 44.8 99.556 99.556v696.888c0 55.253-44.8 99.556-99.556 99.556M1030.944 796.445v-696.888h-696.888v696.888h696.888z" />
<glyph unicode="&#xf135;" glyph-name="checkbox-marked" horiz-adv-x="1365" d="M582.944 199.112l-248.888 248.888 70.187 70.684 178.703-178.703 377.813 377.813 70.187-70.684M1030.944 896h-696.888c-55.253 0-99.556-44.303-99.556-99.556v-696.888c0-54.756 44.8-99.556 99.556-99.556h696.888c54.756 0 99.556 44.8 99.556 99.556v696.888c0 55.253-44.8 99.556-99.556 99.556z" />
<glyph unicode="&#xf13f;" glyph-name="chevron-double-down" horiz-adv-x="1365" d="M943.62 829.439l80.213-80.213-341.333-341.333-341.333 341.333 80.213 80.213 261.12-260.551 261.12 260.551M943.62 488.106l80.213-80.213-341.333-341.333-341.333 341.333 80.213 80.213 261.12-260.551 261.12 260.551z" />
<glyph unicode="&#xf140;" glyph-name="chevron-double-left" horiz-adv-x="1365" d="M1063.939 709.12l-80.213 80.213-341.333-341.333 341.333-341.333 80.213 80.213-260.551 261.12 260.551 261.12M722.606 709.12l-80.213 80.213-341.333-341.333 341.333-341.333 80.213 80.213-260.551 261.12 260.551 261.12z" />
<glyph unicode="&#xf141;" glyph-name="chevron-double-right" horiz-adv-x="1365" d="M301.061 709.12l80.213 80.213 341.333-341.333-341.333-341.333-80.213 80.213 260.551 261.12-260.551 261.12M642.394 709.12l80.213 80.213 341.333-341.333-341.333-341.333-80.213 80.213 260.551 261.12-260.551 261.12z" />
<glyph unicode="&#xf142;" glyph-name="chevron-double-up" horiz-adv-x="1365" d="M421.38 66.561l-80.213 80.213 341.333 341.333 341.333-341.333-80.213-80.213-261.12 260.551-261.12-260.551M421.38 407.894l-80.213 80.213 341.333 341.333 341.333-341.333-80.213-80.213-261.12 260.551-261.12-260.551z" />
<glyph unicode="&#xf143;" glyph-name="chevron-down" horiz-adv-x="1365" d="M421.38 659.057l261.12-261.12 261.12 261.12 80.213-80.782-341.333-341.333-341.333 341.333 80.213 80.782z" />
<glyph unicode="&#xf144;" glyph-name="chevron-left" horiz-adv-x="1365" d="M893.273 187.449l-260.551 260.551 260.551 261.12-80.213 80.213-341.333-341.333 341.333-341.333 80.213 80.782z" />
<glyph unicode="&#xf145;" glyph-name="chevron-right" horiz-adv-x="1365" d="M471.727 187.449l260.551 260.551-260.551 261.12 80.213 80.213 341.333-341.333-341.333-341.333-80.213 80.782z" />
<glyph unicode="&#xf146;" glyph-name="chevron-up" horiz-adv-x="1365" d="M421.38 237.227l261.12 260.551 261.12-260.551 80.213 80.213-341.333 341.333-341.333-341.333 80.213-80.213z" />
<glyph unicode="&#xf153;" glyph-name="clock" horiz-adv-x="1365" d="M682.5 95.289c194.873 0 352.711 157.838 352.711 352.711s-157.838 352.711-352.711 352.711-352.711-157.838-352.711-352.711 157.838-352.711 352.711-352.711M682.5 888.889c243.371 0 440.889-197.518 440.889-440.889s-197.518-440.889-440.889-440.889c-243.812 0-440.889 198.4-440.889 440.889 0 243.371 197.518 440.889 440.889 440.889M704.544 668.445v-231.467l198.4-117.717-33.067-54.229-231.467 138.88v264.533h66.133z" />
<glyph unicode="&#xf154;" glyph-name="clock-end" horiz-adv-x="1365" d="M682.501 878.223c-144.404 0-261.876-117.471-261.876-261.876 0-144.777 117.095-261.876 261.876-261.876 144.404 0 261.876 117.095 261.876 261.876 0 144.404-117.471 261.876-261.876 261.876M682.501 797.792c99.886 0 181.44-81.183 181.44-181.44s-81.556-181.44-181.44-181.44c-100.262 0-181.44 81.183-181.44 181.44s81.183 181.44 181.44 181.44M645.091 728.579v-138.044l119.34-68.836 28.058 48.635-91.281 52.749v105.498M794.731 317.063v-112.231h-448.93v-74.823h448.93v-112.231l149.644 149.644M944.377 167.421v-149.644h74.823v299.284h-74.823" />
<glyph unicode="&#xf155;" glyph-name="clock-fast" horiz-adv-x="1365" d="M841.167 871.111c233.769 0 423.111-189.342 423.111-423.111s-189.342-423.111-423.111-423.111-423.111 189.342-423.111 423.111 189.342 423.111 423.111 423.111M841.167 765.334c-175.062 0-317.333-142.271-317.333-317.333s142.271-317.333 317.333-317.333 317.333 142.271 317.333 317.333-142.271 317.333-317.333 317.333M788.278 659.556h79.333v-199.92l123.231-123.231-56.062-56.062-146.502 146.502v232.711M153.612 130.667c-29.089 0-52.889 23.8-52.889 52.889s23.8 52.889 52.889 52.889h202.564c16.396-37.551 37.551-72.987 61.88-105.778h-264.444M206.501 395.111c-29.089 0-52.889 23.8-52.889 52.889s23.8 52.889 52.889 52.889h108.422l-2.644-52.889 2.644-52.889h-108.422M259.39 659.556c-29.089 0-52.889 23.8-52.889 52.889s23.8 52.889 52.889 52.889h158.667c-24.329-32.791-45.484-68.227-61.88-105.778h-96.787z" />
<glyph unicode="&#xf156;" glyph-name="clock-in" horiz-adv-x="1365" d="M361.253 891.307l-59.357-59.357 167.624-167.206-75.245-74.826h209.009v209.009l-74.826-75.245M770.491 589.918c-161.356 0-292.612-130.837-292.612-292.612s130.837-292.612 292.612-292.612c161.356 0 292.612 130.837 292.612 292.612s-130.837 292.612-292.612 292.612M770.491 500.042c111.61 0 202.736-90.709 202.736-202.736s-90.709-202.736-202.736-202.736c-112.027 0-202.736 90.709-202.736 202.736s90.709 202.736 202.736 202.736M728.692 422.71v-154.249l133.346-76.916 31.352 54.341-101.996 58.938v117.882" />
<glyph unicode="&#xf157;" glyph-name="clock-out" horiz-adv-x="1365" d="M849.104 885.333l74.97-74.556-167.019-166.604 59.143-59.143 166.604 166.604 74.556-74.556v208.254M599.198 593.776c-160.771 0-291.557-130.367-291.557-291.557s130.367-291.557 291.557-291.557c160.771 0 291.557 130.367 291.557 291.557s-130.367 291.557-291.557 291.557M599.198 504.23c111.208 0 202.006-90.384 202.006-202.006s-90.384-202.006-202.006-202.006c-111.623 0-202.006 90.384-202.006 202.006s90.384 202.006 202.006 202.006M557.549 427.175v-153.69l132.866-76.636 31.237 54.146-101.629 58.728v117.457" />
<glyph unicode="&#xf158;" glyph-name="clock-start" horiz-adv-x="1365" d="M645.091 878.222c-144.404 0-261.876-117.471-261.876-261.876 0-144.777 117.094-261.876 261.876-261.876 144.404 0 261.876 117.094 261.876 261.876 0 144.404-117.471 261.876-261.876 261.876M645.091 797.791c99.885 0 181.439-81.183 181.439-181.439s-81.556-181.439-181.439-181.439c-100.262 0-181.439 81.183-181.439 181.439s81.183 181.439 181.439 181.439M607.677 728.579v-138.044l119.34-68.836 28.058 48.635-91.281 52.749v105.498M345.804 317.062v-299.284h74.823v112.231h448.93v-112.231l149.643 149.643-149.643 149.643v-112.231h-448.93v112.231" />
<glyph unicode="&#xf159;" glyph-name="close" horiz-adv-x="1365" d="M1080.722 766.009l-80.213 80.213-318.009-318.009-318.009 318.009-80.213-80.213 318.009-318.009-318.009-318.009 80.213-80.213 318.009 318.009 318.009-318.009 80.213 80.213-318.009 318.009 318.009 318.009z" />
<glyph unicode="&#xf15d;" glyph-name="sort-alpha-asc" horiz-adv-x="966" d="M655.852 691.999h88.501l-36.001 108.999-5.999 23.499c-0.499 3.999-1.001 7-1.001 10.001h-2l-1.5-10.001c-1.5-5.999-2-13.501-5.5-23.499zM428.352 176c0-4.501-2-8.5-5-12l-159.5-159.5c-3.5-3.001-7.499-4.501-11.501-4.501s-8.001 1.5-11.501 4.501l-159.999 159.999c-4.501 5-5.999 11.501-3.5 17.5s8.5 10.001 15.001 10.001h96v688c0 9 7 16 16 16h96c9 0 16-7 16-16v-688h96c9 0 16-7 16-16zM846.353 116.5v-116.501h-292v45.001l184.499 264.5c3.999 5.999 8.001 10.999 10.5 13.501l5.5 4.501v1.5c-2 0-3.999-0.499-7-0.499-3.999-1.001-9-1.5-15.001-1.5h-115.999v-57.5h-59.999v114.499h283.5v-44.499l-184.499-264.999c-3.001-4.501-7-9-10.5-12.999l-5.5-5.5v-1.001l7 1.001c4.501 1.001 9 1.001 15.001 1.001h124v59.5h60.501zM890.852 564.999v-52.999h-143.999v52.999h37.499l-23.499 72h-121.499l-23.499-72h37.499v-52.999h-143.5v52.999h35l115.001 331h80.999l115.001-331h35z" />
<glyph unicode="&#xf15e;" glyph-name="sort-alpha-desc" horiz-adv-x="966" d="M655.852 179.999h88.501l-36.001 108.999-5.999 23.499c-0.499 3.999-1.001 7-1.001 10.001h-2l-1.5-10.001c-1.5-5.999-2-13.501-5.5-23.499zM428.352 176c0-4.501-2-8.5-5-12l-159.5-159.5c-3.5-3.001-7.499-4.501-11.501-4.501s-8.001 1.5-11.501 4.501l-159.999 159.999c-4.501 5-5.999 11.501-3.5 17.5s8.5 10.001 15.001 10.001h96v688c0 9 7 16 16 16h96c9 0 16-7 16-16v-688h96c9 0 16-7 16-16zM890.852 52.998v-52.999h-143.999v52.999h37.499l-23.499 72h-121.499l-23.499-72h37.499v-52.999h-143.5v52.999h35l115.001 331h80.999l115.001-331h35zM846.353 628.499v-116.501h-292v45.001l184.499 264.5c3.999 5.999 8.001 10.999 10.5 13.501l5.5 4.501v1.5c-2 0-3.999-0.499-7-0.499-3.999-1.001-9-1.5-15.001-1.5h-115.999v-57.5h-59.999v114.499h283.5v-44.499l-184.499-265c-3.001-4.501-7-9-10.5-12.999l-5.5-5v-1.5l7 1.5c4.501 0.499 9 0.499 15.001 0.499h124v59.5h60.501z" />
<glyph unicode="&#xf162;" glyph-name="sort-numeric-asc" horiz-adv-x="866" d="M727.109 239.5c0 40.999-33.5 84.499-73.5 84.499-35 0-57.001-28.499-57.001-65.499 0-36.001 23-66.5 70.499-66.5 32.501 0 59.999 19.5 59.999 47.5zM422.109 176.001c0-4.501-2-8.5-5-12l-159.5-159.5c-3.5-3.001-7.499-4.501-11.501-4.501s-8.001 1.5-11.501 4.501l-159.999 159.999c-4.501 5-5.999 11.501-3.5 17.5s8.5 10.001 15.001 10.001h96v688c0 9 7 16 16 16h96c9 0 16-7 16-16v-688h96c9 0 16-7 16-16zM797.109 210.499c0-101.001-54.999-210.499-173.999-210.499-22.5 0-40.999 3.5-54 8.001-8.001 2.499-15.001 5-21 7.499l19.5 56.499c4.501-2 10.001-3.999 15.5-5.5 10.001-3.5 23-6.501 37.499-6.501 59.999 0 91 50.001 100.499 101.999h-1.001c-14-15.001-43.5-25.501-73.001-25.501-72.499 0-120.001 57.001-120.001 122.001 0 68.999 52.999 125.501 126.499 125.501 79.499 0 143.5-65 143.5-173.5zM782.11 569v-57.001h-234.5v57.001h83.501v215.999c0 6.501 0.499 12.999 0.499 17.999v8.001h-1.001l-3.5-5.999c-2.499-3.999-6.501-9-12.999-15.5l-31.001-29.001-40.999 43.001 96 92.5h61.5v-327h82.5z" />
<glyph unicode="&#xf163;" glyph-name="sort-numeric-desc" horiz-adv-x="866" d="M727.109 751.499c0 40.999-33.5 84.499-73.5 84.499-35 0-57.001-28.499-57.001-65.499 0-36.001 23-66.5 70.499-66.5 32.501 0 59.999 19.5 59.999 47.5zM422.109 176.001c0-4.501-2-8.5-5-12l-159.5-159.5c-3.5-3.001-7.499-4.501-11.501-4.501s-8.001 1.5-11.501 4.501l-159.999 159.999c-4.501 5-5.999 11.501-3.5 17.5s8.5 10.001 15.001 10.001h96v688c0 9 7 16 16 16h96c9 0 16-7 16-16v-688h96c9 0 16-7 16-16zM782.11 57.001v-57.001h-234.5v57.001h83.501v215.999c0 6.501 0.499 12.999 0.499 17.999v8.001h-1.001l-3.5-5.999c-2.499-3.999-6.501-9-12.999-15.5l-31.001-29.001-40.999 43.001 96 92.5h61.5v-327h82.5zM797.109 722.5c0-101.001-54.999-210.499-173.999-210.499-22.5 0-40.999 3.5-54 8.001-8.001 2.499-15.001 5-21 7.499l19.5 56.499c4.501-2 10.001-3.999 15.5-5.5 10.001-3.5 23-6.501 37.499-6.501 59.999 0 91 50.001 100.499 101.999h-1.001c-14-15.001-43.5-25.501-73.001-25.501-72.499 0-120.001 57.001-120.001 122.001 0 68.999 52.999 125.501 126.499 125.501 79.499 0 143.5-65 143.5-173.5z" />
<glyph unicode="&#xf165;" glyph-name="closed-caption" horiz-adv-x="1365" d="M999.833 500.889h-79.333v26.444h-105.778v-158.667h105.778v26.444h79.333v-52.889c0-29.089-23.8-52.889-52.889-52.889h-158.667c-29.089 0-52.889 23.8-52.889 52.889v211.556c0 29.089 23.8 52.889 52.889 52.889h158.667c29.089 0 52.889-23.8 52.889-52.889M629.611 500.889h-79.333v26.444h-105.778v-158.667h105.778v26.444h79.333v-52.889c0-29.089-23.8-52.889-52.889-52.889h-158.667c-29.089 0-52.889 23.8-52.889 52.889v211.556c0 29.089 23.8 52.889 52.889 52.889h158.667c29.089 0 52.889-23.8 52.889-52.889M1052.722 871.111h-740.444c-58.707 0-105.778-47.071-105.778-105.778v-634.667c0-58.178 47.6-105.778 105.778-105.778h740.444c58.178 0 105.778 47.6 105.778 105.778v634.667c0 58.707-47.6 105.778-105.778 105.778z" />
<glyph unicode="&#xf166;" glyph-name="cloud" horiz-adv-x="1365" d="M1041.833 544.311c-33.244 168.178-181.378 294.8-359.333 294.8-141.289 0-264-80.178-325.111-197.022-147.156-16.133-261.556-140.311-261.556-291.867 0-161.822 131.511-293.333 293.333-293.333h635.556c134.933 0 244.444 109.511 244.444 244.444 0 129.067-100.222 233.689-227.333 242.978z" />
<glyph unicode="&#xf16a;" glyph-name="cloud-off-outline" horiz-adv-x="1365" d="M485.13 586.665l369.779-369.779h-449.741c-102.15 0-184.89 82.738-184.89 184.89s82.738 184.89 184.89 184.89M266.5 805.299l127.11-126.186c-147.45-6.934-265.779-128.035-265.779-277.334 0-152.995 124.339-277.334 277.334-277.334h542.186l92.445-92.445 58.702 58.701-773.299 773.299M1022.234 585.279c-31.43 159.005-171.485 278.72-339.734 278.72-69.334 0-131.734-19.875-184.89-54.080l67.022-67.485c35.13 18.49 75.341 29.12 117.866 29.12 140.515 0 254.222-113.706 254.222-254.221v-23.11h69.334c76.73 0 138.666-61.938 138.666-138.666 0-52.23-29.581-97.53-72.106-121.102l67.022-67.022c58.702 42.062 97.53 110.47 97.53 188.125 0 122.026-94.755 220.942-214.934 229.725z" />
<glyph unicode="&#xf16b;" glyph-name="cloud-outline" horiz-adv-x="1365" d="M1024.722 154.667h-635.556c-108.044 0-195.556 87.511-195.556 195.556s87.511 195.556 195.556 195.556h34.711c32.267 112.933 136.4 195.556 258.622 195.556 148.622 0 268.889-120.267 268.889-268.889v-24.444h73.333c81.156 0 146.667-65.511 146.667-146.667s-65.511-146.667-146.667-146.667M1041.833 544.311c-33.244 168.178-181.378 294.8-359.333 294.8-141.289 0-264-80.178-325.111-197.022-147.156-16.133-261.556-140.311-261.556-291.867 0-161.822 131.511-293.333 293.333-293.333h635.556c134.933 0 244.444 109.511 244.444 244.444 0 129.067-100.222 233.689-227.333 242.978z" />
<glyph unicode="&#xf178;" glyph-name="code-not-equal-variant" horiz-adv-x="1365" d="M632.723 721.777v-140.872l-132.907-132.907 132.907-132.907v-140.872l-273.777 273.777M732.278 725.263l277.263-277.263-277.263-277.263v140.872l136.392 136.392-136.392 136.392M334.056 896c-55.253 0-99.556-44.8-99.556-99.556v-696.888c0-54.756 44.8-99.556 99.556-99.556h696.888c54.756 0 99.556 44.8 99.556 99.556v696.888c0 54.756-44.8 99.556-99.556 99.556h-696.888z" />
<glyph unicode="&#xf181;" glyph-name="comment, sms" horiz-adv-x="1365" d="M550.234 7.11c-24.249 0-44.089 19.84-44.089 44.089v132.267h-176.356c-48.498 0-88.178 39.68-88.178 88.178v529.067c0 48.939 39.68 88.178 88.178 88.178h705.422c48.498 0 88.178-39.68 88.178-88.178v-529.067c0-48.498-39.68-88.178-88.178-88.178h-268.942l-163.129-163.57c-8.818-8.377-19.84-12.786-30.862-12.786h-22.044z" />
<glyph unicode="&#xf183;" glyph-name="comment-account-outline" horiz-adv-x="1365" d="M550.234 7.11c-24.249 0-44.089 19.84-44.089 44.089v132.267h-176.356c-48.498 0-88.178 39.68-88.178 88.178v529.067c0 48.939 39.68 88.178 88.178 88.178h705.422c48.498 0 88.178-39.68 88.178-88.178v-529.067c0-48.498-39.68-88.178-88.178-88.178h-268.942l-163.129-163.57c-8.818-8.377-19.84-12.786-30.862-12.786h-22.044M594.323 271.644v-135.794l135.794 135.794h305.095v529.067h-705.422v-529.067h264.533M858.856 359.822h-352.711v44.089c0 58.638 117.717 88.178 176.356 88.178s176.356-29.54 176.356-88.178v-44.089M682.501 712.533c48.498 0 88.178-39.68 88.178-88.178s-39.68-88.178-88.178-88.178-88.178 39.68-88.178 88.178 39.68 88.178 88.178 88.178z" />
<glyph unicode="&#xf185;" glyph-name="comment-alert-outline" horiz-adv-x="1365" d="M550.234 7.11c-24.249 0-44.089 19.84-44.089 44.089v132.267h-176.356c-48.498 0-88.178 39.68-88.178 88.178v529.067c0 48.939 39.68 88.178 88.178 88.178h705.422c48.498 0 88.178-39.68 88.178-88.178v-529.067c0-48.498-39.68-88.178-88.178-88.178h-268.942l-163.129-163.57c-8.818-8.377-19.84-12.786-30.862-12.786h-22.044M594.323 271.644v-135.794l135.794 135.794h305.095v529.067h-705.422v-529.067h264.533M726.59 536.177h-88.178v176.356h88.178v-176.356M726.59 359.822h-88.178v88.178h88.178v-88.178z" />
<glyph unicode="&#xf187;" glyph-name="comment-check-outline" horiz-adv-x="1365" d="M550.234 7.11c-24.249 0-44.089 19.84-44.089 44.089v132.267h-176.356c-48.498 0-88.178 39.68-88.178 88.178v529.067c0 48.939 39.68 88.178 88.178 88.178h705.422c48.498 0 88.178-39.68 88.178-88.178v-529.067c0-48.498-39.68-88.178-88.178-88.178h-268.942l-163.129-163.57c-8.818-8.377-19.84-12.786-30.862-12.786h-22.044M594.323 271.644v-135.794l135.794 135.794h305.095v529.067h-705.422v-529.067h264.533M880.901 624.355l-242.489-242.489-154.311 154.311 62.165 62.165 92.146-91.705 180.324 179.883 62.165-62.165z" />
<glyph unicode="&#xf188;" glyph-name="comment-multiple-outline" horiz-adv-x="1365" d="M682.5 14.222c-21.689 0-39.435 17.746-39.435 39.435v118.305h-157.739c-43.378 0-78.87 35.492-78.87 78.87v394.343c0 43.773 35.492 78.87 78.87 78.87h552.082c43.378 0 78.87-35.492 78.87-78.87v-394.343c0-43.378-35.492-78.87-78.87-78.87h-161.682l-145.905-146.3c-7.886-7.491-17.746-11.434-27.606-11.434h-19.717M721.935 250.828v-121.458l121.458 121.458h194.015v394.343h-552.082v-394.343h236.606M327.592 329.695h-78.87v473.213c0 43.378 35.492 78.87 78.87 78.87h630.95v-78.87h-630.95v-473.213z" />
<glyph unicode="&#xf189;" glyph-name="comment-outline" horiz-adv-x="1365" d="M550.234 7.11c-24.249 0-44.089 19.84-44.089 44.089v132.267h-176.356c-48.498 0-88.178 39.68-88.178 88.178v529.067c0 48.939 39.68 88.178 88.178 88.178h705.422c48.498 0 88.178-39.68 88.178-88.178v-529.067c0-48.498-39.68-88.178-88.178-88.178h-268.942l-163.129-163.57c-8.818-8.377-19.84-12.786-30.862-12.786h-22.044M594.323 271.644v-135.794l135.794 135.794h305.095v529.067h-705.422v-529.067h264.533z" />
<glyph unicode="&#xf18a;" glyph-name="comment-plus-outline" horiz-adv-x="1365" d="M550.234 7.11c-24.249 0-44.089 19.84-44.089 44.089v132.267h-176.356c-48.498 0-88.178 39.68-88.178 88.178v529.067c0 48.939 39.68 88.178 88.178 88.178h705.422c48.498 0 88.178-39.68 88.178-88.178v-529.067c0-48.498-39.68-88.178-88.178-88.178h-268.942l-163.129-163.57c-8.818-8.377-19.84-12.786-30.862-12.786h-22.044M594.323 271.644v-135.794l135.794 135.794h305.095v529.067h-705.422v-529.067h264.533M638.412 712.533h88.178v-132.267h132.267v-88.178h-132.267v-132.267h-88.178v132.267h-132.267v88.178h132.267v132.267z" />
<glyph unicode="&#xf18c;" glyph-name="comment-processing-outline" horiz-adv-x="1365" d="M550.234 7.11c-24.249 0-44.089 19.84-44.089 44.089v132.267h-176.356c-48.498 0-88.178 39.68-88.178 88.178v529.067c0 48.939 39.68 88.178 88.178 88.178h705.422c48.498 0 88.178-39.68 88.178-88.178v-529.067c0-48.498-39.68-88.178-88.178-88.178h-268.942l-163.129-163.57c-8.818-8.377-19.84-12.786-30.862-12.786h-22.044M594.323 271.644v-135.794l135.794 135.794h305.095v529.067h-705.422v-529.067h264.533M902.945 492.088h-88.178v88.178h88.178v-88.178M726.59 492.088h-88.178v88.178h88.178v-88.178M550.234 492.088h-88.178v88.178h88.178v-88.178z" />
<glyph unicode="&#xf18d;" glyph-name="comment-question-outline" horiz-adv-x="1365" d="M329.789 888.89c-48.498 0-88.178-39.68-88.178-88.178v-529.067c0-48.498 39.68-88.178 88.178-88.178h176.356v-132.267c0-24.249 19.84-44.089 44.089-44.089h22.044c11.022 0 22.044 4.409 30.862 12.786l163.129 163.57h268.942c48.498 0 88.178 39.68 88.178 88.178v529.067c0 48.939-39.68 88.178-88.178 88.178h-705.422M329.789 800.712h705.422v-529.067h-305.095l-135.794-135.794v135.794h-264.533v529.067M690.877 734.579c-39.239 0-70.542-7.936-94.35-23.808-24.249-15.872-36.594-42.325-34.389-72.747h86.855c0 12.345 4.409 21.604 11.463 27.776 8.818 6.172 18.517 9.259 30.421 9.259 13.668 0 25.572-3.527 33.508-11.463 7.936-7.495 11.904-17.195 11.904-30.421 0-12.345-3.527-23.367-9.7-32.626-7.495-9.7-16.754-17.636-28.217-23.808-22.926-14.108-37.916-26.453-47.175-37.035-8.377-10.581-12.786-25.572-12.786-47.616h88.178c0 12.345 2.204 22.044 6.172 29.98 3.968 7.495 11.463 14.108 22.926 20.722 20.281 9.259 37.035 21.604 49.82 37.476 12.786 16.313 19.399 33.508 19.399 52.907 0 30.862-11.904 55.552-35.712 74.069-23.808 18.076-56.875 27.335-98.318 27.335M638.411 448.001v-88.178h88.178v88.178h-88.178z" />
</font>
</defs>
</svg>
